<svg width="219" height="92" viewBox="0 0 219 92" fill="none" xmlns="http://www.w3.org/2000/svg">
<path d="M117.378 31.5C118.098 31.5 118.728 31.77 119.268 32.31C119.838 32.82 120.123 33.465 120.123 34.245V60.255C120.123 61.035 119.838 61.695 119.268 62.235C118.698 62.745 118.038 63 117.288 63C116.448 63 115.773 62.745 115.263 62.235C114.753 61.695 114.498 61.035 114.498 60.255V34.245C114.498 33.465 114.768 32.82 115.308 32.31C115.848 31.77 116.538 31.5 117.378 31.5ZM137.313 31.5C138.153 31.5 138.828 31.77 139.338 32.31C139.848 32.82 140.103 33.465 140.103 34.245V60.255C140.103 61.035 139.833 61.695 139.293 62.235C138.783 62.745 138.093 63 137.223 63C136.503 63 135.858 62.745 135.288 62.235C134.748 61.695 134.478 61.035 134.478 60.255V34.245C134.478 33.465 134.763 32.82 135.333 32.31C135.903 31.77 136.563 31.5 137.313 31.5ZM117.243 44.595H137.313V49.77H117.243V44.595ZM164.077 58.05C164.797 58.05 165.397 58.29 165.877 58.77C166.357 59.25 166.597 59.85 166.597 60.57C166.597 61.26 166.357 61.845 165.877 62.325C165.397 62.775 164.797 63 164.077 63H148.777C147.997 63 147.382 62.76 146.932 62.28C146.482 61.8 146.257 61.185 146.257 60.435C146.257 59.685 146.527 59.025 147.067 58.455L156.877 47.97C157.987 46.77 158.857 45.54 159.487 44.28C160.147 43.02 160.477 41.925 160.477 40.995C160.477 39.495 160.042 38.295 159.172 37.395C158.302 36.465 157.147 36 155.707 36C155.137 36 154.552 36.135 153.952 36.405C153.352 36.675 152.767 37.05 152.197 37.53C151.657 38.01 151.147 38.565 150.667 39.195C150.307 39.675 149.947 39.975 149.587 40.095C149.227 40.215 148.897 40.275 148.597 40.275C147.937 40.275 147.322 40.035 146.752 39.555C146.212 39.045 145.942 38.46 145.942 37.8C145.942 37.29 146.107 36.795 146.437 36.315C146.797 35.835 147.232 35.34 147.742 34.83C148.492 34.08 149.332 33.42 150.262 32.85C151.192 32.28 152.152 31.845 153.142 31.545C154.132 31.215 155.092 31.05 156.022 31.05C158.032 31.05 159.772 31.455 161.242 32.265C162.742 33.045 163.897 34.17 164.707 35.64C165.517 37.08 165.922 38.79 165.922 40.77C165.922 42.42 165.427 44.265 164.437 46.305C163.477 48.315 162.172 50.205 160.522 51.975L154.447 58.455L153.952 58.05H164.077ZM186.592 63C185.842 63 185.212 62.745 184.702 62.235C184.192 61.695 183.937 61.035 183.937 60.255V39.105L184.882 39.33L176.197 50.085L175.972 49.5H191.902C192.622 49.5 193.222 49.74 193.702 50.22C194.182 50.7 194.422 51.3 194.422 52.02C194.422 52.71 194.182 53.295 193.702 53.775C193.222 54.225 192.622 54.45 191.902 54.45H172.237C171.607 54.45 170.992 54.195 170.392 53.685C169.822 53.175 169.537 52.545 169.537 51.795C169.537 51.135 169.762 50.535 170.212 49.995L184.432 32.58C184.672 32.25 184.987 31.995 185.377 31.815C185.767 31.605 186.202 31.5 186.682 31.5C187.462 31.5 188.092 31.77 188.572 32.31C189.082 32.82 189.337 33.465 189.337 34.245V60.255C189.337 61.035 189.067 61.695 188.527 62.235C188.017 62.745 187.372 63 186.592 63ZM203.18 63.225C202.43 63.225 201.77 62.985 201.2 62.505C200.66 61.995 200.39 61.365 200.39 60.615C200.39 60.195 200.48 59.79 200.66 59.4L211.685 35.505L212.18 36.72H199.175C198.455 36.72 197.855 36.48 197.375 36C196.895 35.52 196.655 34.92 196.655 34.2C196.655 33.51 196.895 32.94 197.375 32.49C197.855 32.01 198.455 31.77 199.175 31.77H214.835C215.615 31.77 216.29 32.025 216.86 32.535C217.46 33.015 217.76 33.645 217.76 34.425C217.76 34.815 217.67 35.22 217.49 35.64L205.655 61.515C205.445 62.055 205.1 62.475 204.62 62.775C204.17 63.075 203.69 63.225 203.18 63.225Z" fill="#333333"/>
<path d="M88.1931 27.8345L63.1965 2.84491H27.8423L2.8457 27.8345V63.1787L27.8423 88.1682H63.1965L88.1931 63.1787V27.8345Z" fill="url(#paint0_radial_925_3543)"/>
<path d="M88.1931 27.8345L63.1965 2.84491H27.8423L2.8457 27.8345V63.1787L27.8423 88.1682H63.1965L88.1931 63.1787V27.8345Z" fill="url(#paint1_radial_925_3543)"/>
<path d="M27.922 2.80947L27.7815 2.87195L42.7292 36.4774L42.8698 36.4149L27.922 2.80947Z" fill="white"/>
<path d="M61.5126 4.79864L32.7407 13.8079L32.7867 13.9546L61.5586 4.9454L61.5126 4.79864Z" fill="white"/>
<path d="M62.1576 4.78654L55.2419 19.6049L55.3813 19.6699L62.297 4.85156L62.1576 4.78654Z" fill="white"/>
<path d="M32.7646 13.8085L32.7266 13.9575L55.3063 19.7237L55.3444 19.5747L32.7646 13.8085Z" fill="white"/>
<path d="M55.2652 19.5858L42.7327 36.3961L42.856 36.488L55.3886 19.6777L55.2652 19.5858Z" fill="white"/>
<path d="M55.3563 19.5828L55.2708 19.7106L78.0483 34.9471L78.1339 34.8192L55.3563 19.5828Z" fill="white"/>
<path d="M86.9935 29.3287L78.2368 35.0942L78.3214 35.2227L87.0781 29.4571L86.9935 29.3287Z" fill="white"/>
<path d="M77.845 35.0132L43.2073 36.2892L43.2129 36.4429L77.8506 35.1669L77.845 35.0132Z" fill="white"/>
<path d="M78.7163 35.721L78.5715 35.773L87.5663 60.8103L87.7111 60.7583L78.7163 35.721Z" fill="white"/>
<path d="M77.9701 35.7L70.1799 57.4948L70.3248 57.5466L78.115 35.7517L77.9701 35.7Z" fill="white"/>
<path d="M70.2819 57.4766L70.2422 57.6251L87.5287 62.2479L87.5685 62.0993L70.2819 57.4766Z" fill="white"/>
<path d="M42.8754 36.4404L42.7256 36.4755L46.0443 50.6506L46.1941 50.6156L42.8754 36.4404Z" fill="white"/>
<path d="M46.1354 50.5553L46.093 50.7032L70.248 57.6181L70.2903 57.4702L46.1354 50.5553Z" fill="white"/>
<path d="M46.1827 50.5849L46.0444 50.6523L55.3395 69.7036L55.4778 69.6361L46.1827 50.5849Z" fill="white"/>
<path d="M70.1929 57.4582L55.3577 69.6053L55.4551 69.7242L70.2904 57.5772L70.1929 57.4582Z" fill="white"/>
<path d="M55.4767 69.6533L55.335 69.7131L63.1258 88.1806L63.2676 88.1208L55.4767 69.6533Z" fill="white"/>
<path d="M55.3589 69.615L38.2512 78.6129L38.3228 78.749L55.4305 69.7511L55.3589 69.615Z" fill="white"/>
<path d="M38.3258 78.6068L38.2739 78.7516L61.2023 86.962L61.2542 86.8172L38.3258 78.6068Z" fill="white"/>
<path d="M38.247 78.6214L27.3953 87.703L27.494 87.8209L38.3457 78.7394L38.247 78.6214Z" fill="white"/>
<path d="M46.0313 50.6041L38.2144 78.6516L38.3625 78.6929L46.1795 50.6454L46.0313 50.6041Z" fill="white"/>
<path d="M15.7428 57.5521L15.6379 57.6646L38.2363 78.7216L38.3412 78.6091L15.7428 57.5521Z" fill="white"/>
<path d="M46.0899 50.5378L15.6565 57.5244L15.6909 57.6742L46.1243 50.6877L46.0899 50.5378Z" fill="white"/>
<path d="M15.6499 57.5404L2.18726 63.0885L2.24588 63.2307L15.7086 57.6826L15.6499 57.5404Z" fill="white"/>
<path d="M3.59186 27.9818L3.50024 28.1053L19.7288 40.1344L19.8204 40.0109L3.59186 27.9818Z" fill="white"/>
<path d="M32.6968 13.8517L19.7087 40.0545L19.8466 40.1228L32.8346 13.92L32.6968 13.8517Z" fill="white"/>
<path d="M19.8018 40.0127L19.7446 40.1555L46.0724 50.6836L46.1295 50.5409L19.8018 40.0127Z" fill="white"/>
<path d="M19.7103 40.0635L15.6177 57.5846L15.7675 57.6196L19.8601 40.0985L19.7103 40.0635Z" fill="white"/>
<path d="M2.90371 27.8019L2.76245 27.8628L15.5988 57.6362L15.7401 57.5754L2.90371 27.8019Z" fill="white"/>
<path d="M32.765 15.327C33.558 15.327 34.2007 14.6844 34.2007 13.8917C34.2007 13.099 33.558 12.4564 32.765 12.4564C31.9721 12.4564 31.3293 13.099 31.3293 13.8917C31.3293 14.6844 31.9721 15.327 32.765 15.327Z" fill="white"/>
<path d="M42.8402 37.8048C43.6332 37.8048 44.2759 37.1622 44.2759 36.3695C44.2759 35.5768 43.6332 34.9342 42.8402 34.9342C42.0473 34.9342 41.4045 35.5768 41.4045 36.3695C41.4045 37.1622 42.0473 37.8048 42.8402 37.8048Z" fill="white"/>
<path d="M70.2465 58.9754C71.0394 58.9754 71.6822 58.3328 71.6822 57.5401C71.6822 56.7474 71.0394 56.1048 70.2465 56.1048C69.4536 56.1048 68.8108 56.7474 68.8108 57.5401C68.8108 58.3328 69.4536 58.9754 70.2465 58.9754Z" fill="white"/>
<path d="M46.1217 52.0552C46.9147 52.0552 47.5575 51.4126 47.5575 50.6199C47.5575 49.8272 46.9147 49.1846 46.1217 49.1846C45.3288 49.1846 44.686 49.8272 44.686 50.6199C44.686 51.4126 45.3288 52.0552 46.1217 52.0552Z" fill="white"/>
<path d="M19.7668 41.5211C20.5597 41.5211 21.2025 40.8785 21.2025 40.0858C21.2025 39.2931 20.5597 38.6505 19.7668 38.6505C18.9738 38.6505 18.3311 39.2931 18.3311 40.0858C18.3311 40.8785 18.9738 41.5211 19.7668 41.5211Z" fill="white"/>
<path d="M15.6903 59.0522C16.4833 59.0522 17.126 58.4096 17.126 57.6169C17.126 56.8242 16.4833 56.1816 15.6903 56.1816C14.8974 56.1816 14.2546 56.8242 14.2546 57.6169C14.2546 58.4096 14.8974 59.0522 15.6903 59.0522Z" fill="white"/>
<path d="M38.3022 80.1203C39.0951 80.1203 39.7379 79.4777 39.7379 78.685C39.7379 77.8923 39.0951 77.2497 38.3022 77.2497C37.5092 77.2497 36.8665 77.8923 36.8665 78.685C36.8665 79.4777 37.5092 80.1203 38.3022 80.1203Z" fill="white"/>
<path d="M55.4025 71.1241C56.1954 71.1241 56.8382 70.4815 56.8382 69.6888C56.8382 68.8961 56.1954 68.2535 55.4025 68.2535C54.6096 68.2535 53.9668 68.8961 53.9668 69.6888C53.9668 70.4815 54.6096 71.1241 55.4025 71.1241Z" fill="white"/>
<path d="M55.3517 21.0938C56.1446 21.0938 56.7874 20.4512 56.7874 19.6585C56.7874 18.8658 56.1446 18.2232 55.3517 18.2232C54.5588 18.2232 53.916 18.8658 53.916 19.6585C53.916 20.4512 54.5588 21.0938 55.3517 21.0938Z" fill="white"/>
<path d="M78.3742 36.4976C79.1671 36.4976 79.8099 35.855 79.8099 35.0623C79.8099 34.2696 79.1671 33.627 78.3742 33.627C77.5813 33.627 76.9385 34.2696 76.9385 35.0623C76.9385 35.855 77.5813 36.4976 78.3742 36.4976Z" fill="white"/>
<path d="M27.8423 5.68993C29.414 5.68993 30.6881 4.4162 30.6881 2.84497C30.6881 1.27373 29.414 0 27.8423 0C26.2707 0 24.9966 1.27373 24.9966 2.84497C24.9966 4.4162 26.2707 5.68993 27.8423 5.68993Z" fill="#1EA7DA"/>
<path d="M2.84577 30.6027C4.41744 30.6027 5.69153 29.3289 5.69153 27.7577C5.69153 26.1865 4.41744 24.9127 2.84577 24.9127C1.27409 24.9127 0 26.1865 0 27.7577C0 29.3289 1.27409 30.6027 2.84577 30.6027Z" fill="#1EA7DA"/>
<path d="M63.2222 5.68993C64.7939 5.68993 66.068 4.4162 66.068 2.84497C66.068 1.27373 64.7939 0 63.2222 0C61.6506 0 60.3765 1.27373 60.3765 2.84497C60.3765 4.4162 61.6506 5.68993 63.2222 5.68993Z" fill="#1EA7DA"/>
<path d="M88.1419 30.6027C89.7136 30.6027 90.9877 29.3289 90.9877 27.7577C90.9877 26.1865 89.7136 24.9127 88.1419 24.9127C86.5702 24.9127 85.2961 26.1865 85.2961 27.7577C85.2961 29.3289 86.5702 30.6027 88.1419 30.6027Z" fill="#1EA7DA"/>
<path d="M2.84577 65.9982C4.41744 65.9982 5.69153 64.7244 5.69153 63.1532C5.69153 61.582 4.41744 60.3082 2.84577 60.3082C1.27409 60.3082 0 61.582 0 63.1532C0 64.7244 1.27409 65.9982 2.84577 65.9982Z" fill="#1EA7DA"/>
<path d="M88.1419 65.9982C89.7136 65.9982 90.9877 64.7244 90.9877 63.1532C90.9877 61.582 89.7136 60.3082 88.1419 60.3082C86.5702 60.3082 85.2961 61.582 85.2961 63.1532C85.2961 64.7244 86.5702 65.9982 88.1419 65.9982Z" fill="#1EA7DA"/>
<path d="M27.8423 91.0132C29.414 91.0132 30.6881 89.7395 30.6881 88.1683C30.6881 86.597 29.414 85.3233 27.8423 85.3233C26.2707 85.3233 24.9966 86.597 24.9966 88.1683C24.9966 89.7395 26.2707 91.0132 27.8423 91.0132Z" fill="#1EA7DA"/>
<path d="M63.2222 91.0132C64.7939 91.0132 66.068 89.7395 66.068 88.1683C66.068 86.597 64.7939 85.3233 63.2222 85.3233C61.6506 85.3233 60.3765 86.597 60.3765 88.1683C60.3765 89.7395 61.6506 91.0132 63.2222 91.0132Z" fill="#1EA7DA"/>
<path d="M79.3737 27.04C77.8354 26.9118 76.7074 26.9375 76.7074 26.9375H66.478L60.5557 26.9631H30.2009H24.5863H14.3825C13.0494 26.9375 11.7162 27.0656 11.7162 27.0656C8.53716 27.2963 5.81958 27.732 5.81958 27.732C8.99863 28.2446 11.7162 28.3984 11.7162 28.424C13.2545 28.5522 14.3825 28.5265 14.3825 28.5265H24.6119H30.2265H60.5557H66.478H76.7074C78.0405 28.5522 79.3737 28.3984 79.3737 28.3984C82.5527 28.1677 85.2703 27.732 85.2703 27.732C82.1169 27.245 79.3737 27.0656 79.3737 27.04Z" fill="#E63634"/>
<path d="M28.6629 75.9682V65.998L28.6373 60.3081V30.6794V25.092V15.1218C28.6629 13.8147 28.5347 12.5075 28.5347 12.5075C28.304 9.38064 27.8425 6.74072 27.8425 6.74072C27.3041 9.84199 27.1247 12.5075 27.1247 12.5075C26.9965 13.9941 27.0221 15.1218 27.0221 15.1218V25.1177V30.7051V60.3081L27.0477 65.998V75.9682C27.0221 77.2753 27.1503 78.5825 27.1503 78.5825C27.381 81.6838 27.8425 84.3493 27.8425 84.3493C28.3553 81.248 28.5604 78.6081 28.5604 78.5825C28.6885 77.0703 28.6629 75.9682 28.6629 75.9682Z" fill="#E63634"/>
<path d="M79.3996 62.4611C77.8613 62.333 76.7332 62.3586 76.7332 62.3586H66.5039H60.6072H30.2524L24.6378 62.3842H14.4084C13.0752 62.3586 11.7421 62.4868 11.7421 62.4868C8.56304 62.7174 5.84546 63.1531 5.84546 63.1531C9.02451 63.6658 11.7421 63.8195 11.7421 63.8452C13.2803 63.9733 14.4084 63.9477 14.4084 63.9477H24.6378L30.2524 63.9221H60.5816H66.4782H76.7076C78.0408 63.9477 79.3739 63.8195 79.3739 63.8195C82.553 63.5889 85.2705 63.1531 85.2705 63.1531C82.1171 62.6405 79.4252 62.4867 79.3996 62.4611Z" fill="#E63634"/>
<path d="M64.0172 75.9682V65.998L63.9915 60.3081V30.7051V25.1177V15.1475C64.0172 13.8403 63.889 12.5332 63.889 12.5332C63.6582 9.40628 63.1968 6.76636 63.1968 6.76636C62.684 9.86763 62.4789 12.5332 62.4789 12.5332C62.3507 14.0197 62.3764 15.1475 62.3764 15.1475V25.1177V30.7051V60.3081L62.402 65.998V75.9682C62.3764 77.2754 62.5045 78.5825 62.5045 78.5825C62.7353 81.7094 63.1968 84.3493 63.1968 84.3493C63.7095 81.2737 63.9146 78.6081 63.9146 78.5825C64.0428 77.0703 64.0172 75.9682 64.0172 75.9682Z" fill="#E63634"/>
<path d="M27.8423 30.6027C29.414 30.6027 30.6881 29.3289 30.6881 27.7577C30.6881 26.1865 29.414 24.9127 27.8423 24.9127C26.2707 24.9127 24.9966 26.1865 24.9966 27.7577C24.9966 29.3289 26.2707 30.6027 27.8423 30.6027Z" fill="#E63634"/>
<path d="M63.2989 30.6027C64.8706 30.6027 66.1447 29.3289 66.1447 27.7577C66.1447 26.1865 64.8706 24.9127 63.2989 24.9127C61.7272 24.9127 60.4531 26.1865 60.4531 27.7577C60.4531 29.3289 61.7272 30.6027 63.2989 30.6027Z" fill="#E63634"/>
<path d="M63.2989 65.9982C64.8706 65.9982 66.1447 64.7244 66.1447 63.1532C66.1447 61.582 64.8706 60.3082 63.2989 60.3082C61.7272 60.3082 60.4531 61.582 60.4531 63.1532C60.4531 64.7244 61.7272 65.9982 63.2989 65.9982Z" fill="#E63634"/>
<path d="M27.868 65.9982C29.4397 65.9982 30.7138 64.7244 30.7138 63.1532C30.7138 61.582 29.4397 60.3082 27.868 60.3082C26.2963 60.3082 25.0222 61.582 25.0222 63.1532C25.0222 64.7244 26.2963 65.9982 27.868 65.9982Z" fill="#E63634"/>
<defs>
<radialGradient id="paint0_radial_925_3543" cx="0" cy="0" r="1" gradientUnits="userSpaceOnUse" gradientTransform="translate(45.5293 45.5098) scale(41.9545 41.9427)">
<stop offset="0.1541" stop-color="#ABDEE2"/>
<stop offset="0.3067" stop-color="#9FD8E1"/>
<stop offset="0.5761" stop-color="#7DCBE1"/>
<stop offset="0.9285" stop-color="#34BAE2"/>
<stop offset="1" stop-color="#06B6E2"/>
</radialGradient>
<radialGradient id="paint1_radial_925_3543" cx="0" cy="0" r="1" gradientUnits="userSpaceOnUse" gradientTransform="translate(45.5293 45.5098) scale(43.9496 43.9372)">
<stop offset="0.1541" stop-color="#ABDEE2"/>
<stop offset="0.3055" stop-color="#9FD7E1"/>
<stop offset="0.5728" stop-color="#7ECAE1"/>
<stop offset="0.9224" stop-color="#36B7E2"/>
<stop offset="1" stop-color="#08B3E2"/>
</radialGradient>
</defs>
</svg>
