<svg width="14" height="14" viewBox="0 0 14 14" fill="currentColor" xmlns="http://www.w3.org/2000/svg">
<path d="M7.39334 7.66665L5.86001 9.19332C5.79752 9.25529 5.74793 9.32903 5.71408 9.41027C5.68024 9.49151 5.66281 9.57864 5.66281 9.66665C5.66281 9.75466 5.68024 9.8418 5.71408 9.92304C5.74793 10.0043 5.79752 10.078 5.86001 10.14C5.92199 10.2025 5.99572 10.2521 6.07696 10.2859C6.1582 10.3198 6.24534 10.3372 6.33334 10.3372C6.42135 10.3372 6.50849 10.3198 6.58973 10.2859C6.67097 10.2521 6.7447 10.2025 6.80668 10.14L9.47334 7.47332C9.53404 7.40992 9.58161 7.33515 9.61334 7.25332C9.68002 7.09101 9.68002 6.90896 9.61334 6.74665C9.58161 6.66482 9.53404 6.59005 9.47334 6.52665L6.80668 3.85999C6.74452 3.79783 6.67072 3.74852 6.58951 3.71488C6.5083 3.68124 6.42125 3.66392 6.33334 3.66392C6.24544 3.66392 6.15839 3.68124 6.07718 3.71488C5.99596 3.74852 5.92217 3.79783 5.86001 3.85999C5.79785 3.92214 5.74854 3.99594 5.7149 4.07715C5.68126 4.15837 5.66395 4.24541 5.66395 4.33332C5.66395 4.42122 5.68126 4.50827 5.7149 4.58949C5.74854 4.6707 5.79785 4.74449 5.86001 4.80665L7.39334 6.33332H1.00001C0.823199 6.33332 0.65363 6.40356 0.528606 6.52858C0.403581 6.65361 0.333344 6.82317 0.333344 6.99999C0.333344 7.1768 0.403581 7.34637 0.528606 7.47139C0.65363 7.59641 0.823199 7.66665 1.00001 7.66665H7.39334ZM7.00001 0.333318C5.75407 0.327756 4.53151 0.67146 3.47099 1.32545C2.41047 1.97943 1.55445 2.91752 1.00001 4.03332C0.920445 4.19245 0.907353 4.37667 0.963614 4.54545C1.01988 4.71423 1.14088 4.85375 1.30001 4.93332C1.45914 5.01288 1.64336 5.02598 1.81214 4.96972C1.98092 4.91345 2.12045 4.79245 2.20001 4.63332C2.62147 3.7822 3.26257 3.05906 4.05704 2.53864C4.85152 2.01822 5.77056 1.7194 6.71918 1.67305C7.6678 1.6267 8.61159 1.8345 9.45302 2.27499C10.2945 2.71548 11.003 3.37267 11.5054 4.17865C12.0078 4.98463 12.2859 5.91015 12.3109 6.85957C12.336 7.809 12.107 8.74788 11.6477 9.57919C11.1884 10.4105 10.5154 11.1041 9.69837 11.5883C8.8813 12.0724 7.94976 12.3297 7.00001 12.3333C6.00593 12.3376 5.03078 12.0616 4.18647 11.5368C3.34216 11.0121 2.66291 10.2599 2.22668 9.36665C2.14711 9.20752 2.00759 9.08652 1.83881 9.03026C1.67003 8.974 1.48581 8.98709 1.32668 9.06665C1.16755 9.14622 1.04654 9.28574 0.990281 9.45452C0.93402 9.6233 0.947112 9.80752 1.02668 9.96665C1.55523 11.0303 2.35836 11.9335 3.35299 12.5827C4.34762 13.2319 5.49764 13.6036 6.68409 13.6593C7.87054 13.715 9.05033 13.4528 10.1014 12.8997C11.1525 12.3465 12.0368 11.5226 12.6627 10.5132C13.2886 9.50375 13.6335 8.34541 13.6617 7.15799C13.6898 5.97056 13.4002 4.79718 12.8228 3.75921C12.2455 2.72123 11.4012 1.85636 10.3775 1.25406C9.35381 0.651748 8.18777 0.333876 7.00001 0.333318Z"/>
</svg>
