<svg width="44" height="44" viewBox="0 0 44 44" fill="none" xmlns="http://www.w3.org/2000/svg">
<rect width="44" height="44" rx="10" fill="#0F988B"/>
<path d="M29 12H15C14.2044 12 13.4413 12.3161 12.8787 12.8787C12.3161 13.4413 12 14.2044 12 15V29C12 29.7956 12.3161 30.5587 12.8787 31.1213C13.4413 31.6839 14.2044 32 15 32H29C29.7956 32 30.5587 31.6839 31.1213 31.1213C31.6839 30.5587 32 29.7956 32 29V15C32 14.2044 31.6839 13.4413 31.1213 12.8787C30.5587 12.3161 29.7956 12 29 12ZM30 29C30 29.2652 29.8946 29.5196 29.7071 29.7071C29.5196 29.8946 29.2652 30 29 30H15C14.7348 30 14.4804 29.8946 14.2929 29.7071C14.1054 29.5196 14 29.2652 14 29V15C14 14.7348 14.1054 14.4804 14.2929 14.2929C14.4804 14.1054 14.7348 14 15 14H29C29.2652 14 29.5196 14.1054 29.7071 14.2929C29.8946 14.4804 30 14.7348 30 15V29ZM27 19H25V17C25 16.7348 24.8946 16.4804 24.7071 16.2929C24.5196 16.1054 24.2652 16 24 16H20C19.7348 16 19.4804 16.1054 19.2929 16.2929C19.1054 16.4804 19 16.7348 19 17V19H17C16.7348 19 16.4804 19.1054 16.2929 19.2929C16.1054 19.4804 16 19.7348 16 20V24C16 24.2652 16.1054 24.5196 16.2929 24.7071C16.4804 24.8946 16.7348 25 17 25H19V27C19 27.2652 19.1054 27.5196 19.2929 27.7071C19.4804 27.8946 19.7348 28 20 28H24C24.2652 28 24.5196 27.8946 24.7071 27.7071C24.8946 27.5196 25 27.2652 25 27V25H27C27.2652 25 27.5196 24.8946 27.7071 24.7071C27.8946 24.5196 28 24.2652 28 24V20C28 19.7348 27.8946 19.4804 27.7071 19.2929C27.5196 19.1054 27.2652 19 27 19ZM26 23H24C23.7348 23 23.4804 23.1054 23.2929 23.2929C23.1054 23.4804 23 23.7348 23 24V26H21V24C21 23.7348 20.8946 23.4804 20.7071 23.2929C20.5196 23.1054 20.2652 23 20 23H18V21H20C20.2652 21 20.5196 20.8946 20.7071 20.7071C20.8946 20.5196 21 20.2652 21 20V18H23V20C23 20.2652 23.1054 20.5196 23.2929 20.7071C23.4804 20.8946 23.7348 21 24 21H26V23Z" fill="white"/>
</svg>
