<svg width="44" height="44" viewBox="0 0 44 44" fill="none" xmlns="http://www.w3.org/2000/svg">
<rect width="44" height="44" rx="10" fill="#2F9B5D"/>
<path d="M32.5731 10.076C32.9698 10.1011 33.4452 10.0362 33.9172 10.1305C35.0832 10.3638 35.9622 11.3838 35.9899 12.574C36.0063 13.275 35.9985 13.9768 35.9933 14.6787C35.9907 15.033 35.7824 15.2578 35.4773 15.2586C35.1722 15.2586 34.9622 15.0348 34.9596 14.6813C34.9544 14.0339 34.9613 13.3865 34.957 12.7382C34.9509 11.7719 34.2949 11.1184 33.3277 11.1132C32.6906 11.1098 32.0545 11.1149 31.4175 11.1115C31.0389 11.1089 30.809 10.9049 30.8115 10.5886C30.815 10.2722 31.0432 10.0795 31.427 10.076C31.7831 10.0725 32.1392 10.076 32.5714 10.076H32.5731Z" fill="white"/>
<path d="M11.4393 33.9244C11.0538 33.8985 10.5897 33.9659 10.1281 33.8768C8.90332 33.6409 8.02514 32.6175 8.00613 31.3771C7.99576 30.6978 8.00094 30.0175 8.0044 29.3373C8.00613 28.9639 8.21962 28.7322 8.53597 28.7417C8.83936 28.7504 9.03643 28.9751 9.03816 29.3347C9.04248 29.9821 9.03557 30.6295 9.03989 31.2777C9.04594 32.2216 9.70631 32.8802 10.6519 32.8872C11.2889 32.8915 11.9251 32.8863 12.5621 32.8889C12.9476 32.8906 13.1775 33.0808 13.1845 33.3954C13.1914 33.7213 12.9537 33.9218 12.5517 33.9244C12.206 33.927 11.8611 33.9244 11.4393 33.9244Z" fill="white"/>
<path d="M22.4738 30.3135H22.4935H22.4738ZM22.4738 30.3135H22.454M22.4738 30.3135H22.454M22.454 30.3135H22.4343M22.454 30.3135H22.4343M22.4343 30.3135H22.4146M22.4343 30.3135H22.4146M22.4146 30.3135H22.3948M22.4146 30.3135H22.3948M22.3948 30.3135H22.3751M22.3948 30.3135H22.3751M22.3751 30.3135H22.3554M22.3751 30.3135H22.3554M22.3554 30.3135H22.3356M22.3554 30.3135H22.3356M22.3356 30.3135H22.3159M22.3356 30.3135H22.3159M22.3159 30.3135H22.2962M22.3159 30.3135H22.2962M22.2962 30.3135H22.2764M22.2962 30.3135H22.2764M22.2764 30.3135H22.2567M22.2764 30.3135H22.2567M22.2567 30.3135H22.2369M22.2567 30.3135H22.2369M22.2369 30.3135H22.2172M22.2369 30.3135H22.2172M22.2172 30.3135H22.1975M22.2172 30.3135H22.1975M22.1975 30.3135H22.1777M22.1975 30.3135H22.1777M22.1777 30.3135H22.158M22.1777 30.3135H22.158M22.158 30.3135H22.1383M22.158 30.3135H22.1383M22.1383 30.3135H22.1185M22.1383 30.3135H22.1185M22.1185 30.3135H22.0988M22.1185 30.3135H22.0988M22.0988 30.3135H22.0791M22.0988 30.3135H22.0791M22.0791 30.3135H22.0593M22.0791 30.3135H22.0593M22.0593 30.3135H22.0396M22.0593 30.3135H22.0396M22.0396 30.3135H22.0198M22.0396 30.3135H22.0198M22.0198 30.3135H22.0001M22.0198 30.3135H22.0001M22.0001 30.3135H21.9804M22.0001 30.3135H21.9804M21.9804 30.3135H21.9606M21.9804 30.3135H21.9606M21.9606 30.3135H21.9409M21.9606 30.3135H21.9409M21.9409 30.3135H21.9212M21.9409 30.3135H21.9212M21.9212 30.3135H21.9014M21.9212 30.3135H21.9014M21.9014 30.3135H21.8817M21.9014 30.3135H21.8817M21.8817 30.3135H21.8619M21.8817 30.3135H21.8619M21.8619 30.3135H21.8422M21.8619 30.3135H21.8422M21.8422 30.3135H21.8225M21.8422 30.3135H21.8225M21.8225 30.3135H21.8027M21.8225 30.3135H21.8027M21.8027 30.3135H21.783M21.8027 30.3135H21.783M21.783 30.3135H21.7633M21.783 30.3135H21.7633M21.7633 30.3135H21.7435M21.7633 30.3135H21.7435M21.7435 30.3135H21.7238M21.7435 30.3135H21.7238M21.7238 30.3135H21.7041M21.7238 30.3135H21.7041M21.7041 30.3135H21.6843M21.7041 30.3135H21.6843M21.6843 30.3135H21.6646M21.6843 30.3135H21.6646M21.6646 30.3135H21.6448M21.6646 30.3135H21.6448M21.6448 30.3135H21.6251M21.6448 30.3135H21.6251M21.6251 30.3135H21.6054M21.6251 30.3135H21.6054M21.6054 30.3135H21.5856M21.6054 30.3135H21.5856M21.5856 30.3135H21.5659M21.5856 30.3135H21.5659M21.5659 30.3135H21.5462M21.5659 30.3135H21.5462M21.5462 30.3135H21.5264M21.5462 30.3135H21.5264M21.5264 30.3135H21.5067M21.5264 30.3135H21.5067M21.5067 30.3135H21.487M21.5067 30.3135H21.487M21.487 30.3135H21.4672M21.487 30.3135H21.4672M21.4672 30.3135H21.4475M21.4672 30.3135H21.4475M21.4475 30.3135H21.4277M21.4475 30.3135H21.4277M21.4277 30.3135H21.408M21.4277 30.3135H21.408M21.408 30.3135H21.3883M21.408 30.3135H21.3883M21.3883 30.3135H21.3685M21.3883 30.3135H21.3685M21.3685 30.3135H21.3488M21.3685 30.3135H21.3488M21.3488 30.3135H21.3291M21.3488 30.3135H21.3291M21.3291 30.3135H21.3093M21.3291 30.3135H21.3093M21.3093 30.3135H21.2896M21.3093 30.3135H21.2896M21.2896 30.3135H21.2699M21.2896 30.3135H21.2699M21.2699 30.3135H21.2501M21.2699 30.3135H21.2501M21.2501 30.3135H21.2304M21.2501 30.3135H21.2304M21.2304 30.3135H21.2106M21.2304 30.3135H21.2106M21.2106 30.3135H21.1909M21.2106 30.3135H21.1909M21.1909 30.3135H21.1712M21.1909 30.3135H21.1712M21.1712 30.3135H21.1514M21.1712 30.3135H21.1514M21.1514 30.3135H21.1317M21.1514 30.3135H21.1317M21.1317 30.3135H21.112M21.1317 30.3135H21.112M21.112 30.3135H21.0922M21.112 30.3135H21.0922M21.0922 30.3135H21.0725M21.0922 30.3135H21.0725M21.0725 30.3135H21.0528M21.0725 30.3135H21.0528M21.0528 30.3135H21.033M21.0528 30.3135H21.033M21.033 30.3135H21.0133M21.033 30.3135H21.0133M21.0133 30.3135H20.9935M21.0133 30.3135H20.9935M20.9935 30.3135H20.9738M20.9935 30.3135H20.9738M20.9738 30.3135H20.9541M20.9738 30.3135H20.9541M20.9541 30.3135H20.9343M20.9541 30.3135H20.9343M20.9343 30.3135H20.9146M20.9343 30.3135H20.9146M20.9146 30.3135H20.8949M20.9146 30.3135H20.8949M20.8949 30.3135H20.8751M20.8949 30.3135H20.8751M20.8751 30.3135H20.8554M20.8751 30.3135H20.8554M20.8554 30.3135H20.8356M20.8554 30.3135H20.8356M20.8356 30.3135H20.8159M20.8356 30.3135H20.8159M20.8159 30.3135H20.7962M20.8159 30.3135H20.7962M20.7962 30.3135H20.7764M20.7962 30.3135H20.7764M20.7764 30.3135H20.7567M20.7764 30.3135H20.7567M20.7567 30.3135H20.737M20.7567 30.3135H20.737M20.737 30.3135H20.7172M20.737 30.3135H20.7172M20.7172 30.3135H20.6975M20.7172 30.3135H20.6975M20.6975 30.3135H20.6778M20.6975 30.3135H20.6778M20.6778 30.3135H20.658M20.6778 30.3135H20.658M20.658 30.3135H20.6383M20.658 30.3135H20.6383M20.6383 30.3135H20.6185M20.6383 30.3135H20.6185M20.6185 30.3135H20.5988M20.6185 30.3135H20.5988M20.5988 30.3135H20.5791M20.5988 30.3135H20.5791M20.5791 30.3135H20.5593M20.5791 30.3135H20.5593M20.5593 30.3135H20.5396M20.5593 30.3135H20.5396M20.5396 30.3135H20.5199M20.5396 30.3135H20.5199M20.5199 30.3135H20.5001M20.5199 30.3135H20.5001M20.5001 30.3135H20.4804M20.5001 30.3135H20.4804M20.4804 30.3135H20.4607M20.4804 30.3135H20.4607M20.4607 30.3135H20.4409M20.4607 30.3135H20.4409M20.4409 30.3135H20.4212M20.4409 30.3135H20.4212M20.4212 30.3135H20.4014M20.4212 30.3135H20.4014M20.4014 30.3135H20.3817M20.4014 30.3135H20.3817M20.3817 30.3135H20.362M20.3817 30.3135H20.362M20.362 30.3135H20.3422M20.362 30.3135H20.3422M20.3422 30.3135H20.3225M20.3422 30.3135H20.3225M20.3225 30.3135H20.3028M20.3225 30.3135H20.3028M20.3028 30.3135H20.283M20.3028 30.3135H20.283M20.283 30.3135H20.2633M20.283 30.3135H20.2633M20.2633 30.3135H20.2436M20.2633 30.3135H20.2436M20.2436 30.3135H20.2238M20.2436 30.3135H20.2238M20.2238 30.3135H20.2041M20.2238 30.3135H20.2041M20.2041 30.3135H20.1843M20.2041 30.3135H20.1843M20.1843 30.3135H20.1646M20.1843 30.3135H20.1646M20.1646 30.3135H20.1449M20.1646 30.3135H20.1449M20.1449 30.3135H20.1251M20.1449 30.3135H20.1251M20.1251 30.3135H20.1054M20.1251 30.3135H20.1054M20.1054 30.3135H20.0857M20.1054 30.3135H20.0857M20.0857 30.3135H20.0659M20.0857 30.3135H20.0659M20.0659 30.3135H20.0462M20.0659 30.3135H20.0462M20.0462 30.3135H20.0264M20.0462 30.3135H20.0264M20.0264 30.3135H20.0067M20.0264 30.3135H20.0067M20.0067 30.3135H19.987M20.0067 30.3135H19.987M19.987 30.3135H19.9672M19.987 30.3135H19.9672M19.9672 30.3135H19.9475M19.9672 30.3135H19.9475M19.9475 30.3135H19.9278M19.9475 30.3135H19.9278M19.9278 30.3135H19.908M19.9278 30.3135H19.908M19.908 30.3135H19.8883M19.908 30.3135H19.8883M19.8883 30.3135H19.8686M19.8883 30.3135H19.8686M19.8686 30.3135H19.8488M19.8686 30.3135H19.8488M19.8488 30.3135H19.8291M19.8488 30.3135H19.8291M19.8291 30.3135H19.8093M19.8291 30.3135H19.8093M19.8093 30.3135H19.7896M19.8093 30.3135H19.7896M19.7896 30.3135H19.7699M19.7896 30.3135H19.7699M19.7699 30.3135H19.7501M19.7699 30.3135H19.7501M19.7501 30.3135H19.7304M19.7501 30.3135H19.7304M19.7304 30.3135H19.7107M19.7304 30.3135H19.7107M19.7107 30.3135H19.6909M19.7107 30.3135H19.6909M19.6909 30.3135H19.6712M19.6909 30.3135H19.6712M19.6712 30.3135H19.6515M19.6712 30.3135H19.6515M19.6515 30.3135H19.6317M19.6515 30.3135H19.6317M19.6317 30.3135H19.612M19.6317 30.3135H19.612M19.612 30.3135H19.5922M19.612 30.3135H19.5922M19.5922 30.3135H19.5725M19.5922 30.3135H19.5725M19.5725 30.3135H19.5528M19.5725 30.3135H19.5528M19.5528 30.3135H19.533M19.5528 30.3135H19.533M19.533 30.3135H19.5133M19.533 30.3135H19.5133M19.5133 30.3135H19.4936M19.5133 30.3135H19.4936M19.4936 30.3135H19.4738M19.4936 30.3135H19.4738M19.4738 30.3135H19.4541M19.4738 30.3135H19.4541M19.4541 30.3135H19.4344M19.4541 30.3135H19.4344M19.4344 30.3135H19.4146M19.4344 30.3135H19.4146M19.4146 30.3135H19.3949M19.4146 30.3135H19.3949M19.3949 30.3135H19.3751M19.3949 30.3135H19.3751M19.3751 30.3135H19.3554M19.3751 30.3135H19.3554M19.3554 30.3135H19.3357M19.3554 30.3135H19.3357M19.3357 30.3135H19.3159M19.3357 30.3135H19.3159M19.3159 30.3135H19.2962M19.3159 30.3135H19.2962M19.2962 30.3135H19.2765M19.2962 30.3135H19.2765M19.2765 30.3135H19.2567M19.2765 30.3135H19.2567M19.2567 30.3135H19.237M19.2567 30.3135H19.237M19.237 30.3135H19.2173M19.237 30.3135H19.2173M19.2173 30.3135H19.1975M19.2173 30.3135H19.1975M19.1975 30.3135H19.1778M19.1975 30.3135H19.1778M19.1778 30.3135H19.158M19.1778 30.3135H19.158M19.158 30.3135H19.1383M19.158 30.3135H19.1383M19.1383 30.3135H19.1186M19.1383 30.3135H19.1186M19.1186 30.3135H19.0988M19.1186 30.3135H19.0988M19.0988 30.3135H19.0791M19.0988 30.3135H19.0791M19.0791 30.3135H19.0594M19.0791 30.3135H19.0594M19.0594 30.3135H19.0396M19.0594 30.3135H19.0396M19.0396 30.3135H19.0199M19.0396 30.3135H19.0199M19.0199 30.3135H19.0001M19.0199 30.3135H19.0001M19.0001 30.3135H18.9804M19.0001 30.3135H18.9804M18.9804 30.3135H18.9607M18.9804 30.3135H18.9607M18.9607 30.3135H18.9409M18.9607 30.3135H18.9409M18.9409 30.3135H18.9212M18.9409 30.3135H18.9212M18.9212 30.3135H18.9015M18.9212 30.3135H18.9015M18.9015 30.3135H18.8817M18.9015 30.3135H18.8817M18.8817 30.3135H18.862M18.8817 30.3135H18.862M18.862 30.3135H18.8423M18.862 30.3135H18.8423M18.8423 30.3135H18.8225M18.8423 30.3135H18.8225M18.8225 30.3135H18.8028M18.8225 30.3135H18.8028M18.8028 30.3135H18.783M18.8028 30.3135H18.783M18.783 30.3135H18.7633M18.783 30.3135H18.7633M18.7633 30.3135H18.7436M18.7633 30.3135H18.7436M18.7436 30.3135H18.7238M18.7436 30.3135H18.7238M18.7238 30.3135H18.7041M18.7238 30.3135H18.7041M18.7041 30.3135H18.6844M18.7041 30.3135H18.6844M18.6844 30.3135H18.6646M18.6844 30.3135H18.6646M18.6646 30.3135H18.6449M18.6646 30.3135H18.6449M18.6449 30.3135H18.6252M18.6449 30.3135H18.6252M18.6252 30.3135H18.6054M18.6252 30.3135H18.6054M18.6054 30.3135H18.5857M18.6054 30.3135H18.5857M18.5857 30.3135H18.5659M18.5857 30.3135H18.5659M18.5659 30.3135H18.5462M18.5659 30.3135H18.5462M18.5462 30.3135H18.5265M18.5462 30.3135H18.5265M18.5265 30.3135H18.5067M18.5265 30.3135H18.5067M18.5067 30.3135H18.487M18.5067 30.3135H18.487M18.487 30.3135H18.4673M18.487 30.3135H18.4673M18.4673 30.3135H18.4475M18.4673 30.3135H18.4475M18.4475 30.3135H18.4278M18.4475 30.3135H18.4278M18.4278 30.3135H18.4081M18.4278 30.3135H18.4081M18.4081 30.3135H18.3883M18.4081 30.3135H18.3883M18.3883 30.3135H18.3686M18.3883 30.3135H18.3686M18.3686 30.3135H18.3488M18.3686 30.3135H18.3488M18.3488 30.3135H18.3291M18.3488 30.3135H18.3291M18.3291 30.3135H18.3094M18.3291 30.3135H18.3094M18.3094 30.3135H18.2896M18.3094 30.3135H18.2896M18.2896 30.3135H18.2699M18.2896 30.3135H18.2699M18.2699 30.3135H18.2502M18.2699 30.3135H18.2502M18.2502 30.3135H18.2304M18.2502 30.3135H18.2304M18.2304 30.3135H18.2107M18.2304 30.3135H18.2107M18.2107 30.3135H18.1909M18.2107 30.3135H18.1909M18.1909 30.3135H18.1712M18.1909 30.3135H18.1712M18.1712 30.3135H18.1515M18.1712 30.3135H18.1515M18.1515 30.3135H18.1317M18.1515 30.3135H18.1317M18.1317 30.3135H18.112M18.1317 30.3135H18.112M18.112 30.3135H18.0923M18.112 30.3135H18.0923M18.0923 30.3135H18.0725M18.0923 30.3135H18.0725M18.0725 30.3135H18.0528M18.0725 30.3135H18.0528M18.0528 30.3135H18.0331M18.0528 30.3135H18.0331M18.0331 30.3135H18.0133M18.0331 30.3135H18.0133M18.0133 30.3135H17.9936M18.0133 30.3135H17.9936M17.9936 30.3135H17.9738M17.9936 30.3135H17.9738M17.9738 30.3135H17.9541M17.9738 30.3135H17.9541M17.9541 30.3135H17.9344M17.9541 30.3135H17.9344M17.9344 30.3135H17.9146M17.9344 30.3135H17.9146M17.9146 30.3135H17.8949M17.9146 30.3135H17.8949M17.8949 30.3135H17.8752M17.8949 30.3135H17.8752M17.8752 30.3135H17.8554M17.8752 30.3135H17.8554M17.8554 30.3135H17.8357M17.8554 30.3135H17.8357M17.8357 30.3135H17.816M17.8357 30.3135H17.816M17.816 30.3135H17.7962M17.816 30.3135H17.7962M17.7962 30.3135H17.7765M17.7962 30.3135H17.7765M17.7765 30.3135H17.7567M17.7765 30.3135H17.7567M17.7567 30.3135H17.737M17.7567 30.3135H17.737M17.737 30.3135H17.7173M17.737 30.3135H17.7173M17.7173 30.3135H17.6975M17.7173 30.3135H17.6975M17.6975 30.3135H17.6778M17.6975 30.3135H17.6778M17.6778 30.3135H17.6581M17.6778 30.3135H17.6581M17.6581 30.3135H17.6383M17.6581 30.3135H17.6383M17.6383 30.3135H17.6186M17.6383 30.3135H17.6186M17.6186 30.3135H17.5989M17.6186 30.3135H17.5989M17.5989 30.3135H17.5791M17.5989 30.3135H17.5791M17.5791 30.3135H17.5594M17.5791 30.3135H17.5594M17.5594 30.3135H17.5396M17.5594 30.3135H17.5396M17.5396 30.3135H17.5199M17.5396 30.3135H17.5199M17.5199 30.3135H17.5002M17.5199 30.3135H17.5002M17.5002 30.3135H17.4804M17.5002 30.3135H17.4804M17.4804 30.3135H17.4607M17.4804 30.3135H17.4607M17.4607 30.3135H17.441M17.4607 30.3135H17.441M17.441 30.3135H17.4212M17.441 30.3135H17.4212M17.4212 30.3135H17.4015M17.4212 30.3135H17.4015M17.4015 30.3135H17.3818M17.4015 30.3135H17.3818M17.3818 30.3135H17.362M17.3818 30.3135H17.362M17.362 30.3135H17.3423M17.362 30.3135H17.3423M17.3423 30.3135H17.3225M17.3423 30.3135H17.3225M17.3225 30.3135H17.3028M17.3225 30.3135H17.3028M17.3028 30.3135H17.2831M17.3028 30.3135H17.2831M17.2831 30.3135H17.2633M17.2831 30.3135H17.2633M17.2633 30.3135H17.2436M17.2633 30.3135H17.2436M17.2436 30.3135H17.2239M17.2436 30.3135H17.2239M17.2239 30.3135H17.2041M17.2239 30.3135H17.2041M17.2041 30.3135H17.1844M17.2041 30.3135H17.1844M17.1844 30.3135H17.1646M17.1844 30.3135H17.1646M17.1646 30.3135H17.1449M17.1646 30.3135H17.1449M17.1449 30.3135H17.1252M17.1449 30.3135H17.1252M17.1252 30.3135H17.1054M17.1252 30.3135H17.1054M17.1054 30.3135H17.0857M17.1054 30.3135H17.0857M17.0857 30.3135H17.066M17.0857 30.3135H17.066M17.066 30.3135H17.0462M17.066 30.3135H17.0462M17.0462 30.3135H17.0265M17.0462 30.3135H17.0265M17.0265 30.3135H17.0068M17.0265 30.3135H17.0068M17.0068 30.3135H16.987M17.0068 30.3135H16.987M16.987 30.3135H16.9673M16.987 30.3135H16.9673M16.9673 30.3135H16.9475M16.9673 30.3135H16.9475M16.9475 30.3135H16.9278M16.9475 30.3135H16.9278M16.9278 30.3135H16.9081M16.9278 30.3135H16.9081M16.9081 30.3135H16.8883M16.9081 30.3135H16.8883M16.8883 30.3135H16.8686M16.8883 30.3135H16.8686M16.8686 30.3135H16.8489M16.8686 30.3135H16.8489M16.8489 30.3135H16.8291M16.8489 30.3135H16.8291M16.8291 30.3135H16.8094M16.8291 30.3135H16.8094M16.8094 30.3135H16.7897M16.8094 30.3135H16.7897M16.7897 30.3135H16.7699M16.7897 30.3135H16.7699M16.7699 30.3135H16.7502M16.7699 30.3135H16.7502M16.7502 30.3135H16.7304M16.7502 30.3135H16.7304M16.7304 30.3135H16.7107M16.7304 30.3135H16.7107M16.7107 30.3135H16.691M16.7107 30.3135H16.691M16.691 30.3135H16.6712M16.691 30.3135H16.6712M16.6712 30.3135H16.6515M16.6712 30.3135H16.6515M16.6515 30.3135H16.6318M16.6515 30.3135H16.6318M16.6318 30.3135H16.612M16.6318 30.3135H16.612M16.612 30.3135H16.5923M16.612 30.3135H16.5923M16.5923 30.3135H16.5726M16.5923 30.3135H16.5726M16.5726 30.3135H16.5528M16.5726 30.3135H16.5528M16.5528 30.3135H16.5331M16.5528 30.3135H16.5331M16.5331 30.3135H16.5133M16.5331 30.3135H16.5133M16.5133 30.3135H16.4936M16.5133 30.3135H16.4936M16.4936 30.3135H16.4739M16.4936 30.3135H16.4739M16.4739 30.3135H16.4541M16.4739 30.3135H16.4541M16.4541 30.3135H16.4344M16.4541 30.3135H16.4344M16.4344 30.3135H16.4147M16.4344 30.3135H16.4147M16.4147 30.3135H16.3949M16.4147 30.3135H16.3949M16.3949 30.3135H16.3752M16.3949 30.3135H16.3752M16.3752 30.3135H16.3554M16.3752 30.3135H16.3554M16.3554 30.3135H16.3357M16.3554 30.3135H16.3357M16.3357 30.3135H16.316M16.3357 30.3135H16.316M16.316 30.3135H16.2962M16.316 30.3135H16.2962M16.2962 30.3135H16.2765M16.2962 30.3135H16.2765M16.2765 30.3135H16.2568M16.2765 30.3135H16.2568M16.2568 30.3135H16.237M16.2568 30.3135H16.237M16.237 30.3135H16.2173M16.237 30.3135H16.2173M16.2173 30.3135H16.1976M16.2173 30.3135H16.1976M16.1976 30.3135H16.1778M16.1976 30.3135H16.1778M16.1778 30.3135H16.1581M16.1778 30.3135H16.1581M16.1581 30.3135H16.1383M16.1581 30.3135H16.1383M16.1383 30.3135H16.1186M16.1383 30.3135H16.1186M16.1186 30.3135H16.0989M16.1186 30.3135H16.0989M16.0989 30.3135H16.0791M16.0989 30.3135H16.0791M16.0791 30.3135H16.0594M16.0791 30.3135H16.0594M16.0594 30.3135H16.0397M16.0594 30.3135H16.0397M16.0397 30.3135H16.0199M16.0397 30.3135H16.0199M16.0199 30.3135H16.0002M16.0199 30.3135H16.0002M16.0002 30.3135H15.9805M16.0002 30.3135H15.9805M15.9805 30.3135H15.9607M15.9805 30.3135H15.9607M15.9607 30.3135H15.941M15.9607 30.3135H15.941M15.941 30.3135H15.9212M15.941 30.3135H15.9212M15.9212 30.3135H15.9015M15.9212 30.3135H15.9015M15.9015 30.3135H15.8818M15.9015 30.3135H15.8818M15.8818 30.3135H15.862M15.8818 30.3135H15.862M15.862 30.3135H15.8423M15.862 30.3135H15.8423M15.8423 30.3135H15.8226M15.8423 30.3135H15.8226M15.8226 30.3135H15.8028M15.8226 30.3135H15.8028M15.8028 30.3135H15.7831M15.8028 30.3135H15.7831M15.7831 30.3135H15.7634M15.7831 30.3135H15.7634M15.7634 30.3135H15.7436M15.7634 30.3135H15.7436M15.7436 30.3135H15.7239M15.7436 30.3135H15.7239M15.7239 30.3135H15.7041M15.7239 30.3135H15.7041M15.7041 30.3135H15.6844M15.7041 30.3135H15.6844M15.6844 30.3135H15.6647M15.6844 30.3135H15.6647M15.6647 30.3135H15.6449M15.6647 30.3135H15.6449M15.6449 30.3135H15.6252M15.6449 30.3135H15.6252M15.6252 30.3135H15.6055M15.6252 30.3135H15.6055M15.6055 30.3135H15.5857M15.6055 30.3135H15.5857M15.5857 30.3135H15.566M15.5857 30.3135H15.566M15.566 30.3135H15.5463M15.566 30.3135H15.5463M15.5463 30.3135H15.5265M15.5463 30.3135H15.5265M15.5265 30.3135H15.5068M15.5265 30.3135H15.5068M15.5068 30.3135H15.487M15.5068 30.3135H15.487M15.487 30.3135H15.4673M15.487 30.3135H15.4673M15.4673 30.3135H15.4476M15.4673 30.3135H15.4476M15.4476 30.3135H15.4278M15.4476 30.3135H15.4278M15.4278 30.3135H15.4081M15.4278 30.3135H15.4081M15.4081 30.3135H15.3884M15.4081 30.3135H15.3884M15.3884 30.3135H15.3686M15.3884 30.3135H15.3686M15.3686 30.3135H15.3489M15.3686 30.3135H15.3489M15.3489 30.3135H15.3291M15.3489 30.3135H15.3291M15.3291 30.3135H15.3094M15.3291 30.3135H15.3094M15.3094 30.3135H15.2897M15.3094 30.3135H15.2897M15.2897 30.3135H15.2699M15.2897 30.3135H15.2699M15.2699 30.3135H15.2502M15.2699 30.3135H15.2502M15.2502 30.3135H15.2305M15.2502 30.3135H15.2305M15.2305 30.3135H15.2107M15.2305 30.3135H15.2107M15.2107 30.3135H15.191M15.2107 30.3135H15.191M15.191 30.3135H15.1713M15.191 30.3135H15.1713M15.1713 30.3135H15.1515M15.1713 30.3135H15.1515M15.1515 30.3135H15.1318M15.1515 30.3135H15.1318M15.1318 30.3135H15.112M15.1318 30.3135H15.112M15.112 30.3135H15.0923M15.112 30.3135H15.0923M15.0923 30.3135H15.0726M15.0923 30.3135H15.0726M15.0726 30.3135H15.0528M15.0726 30.3135H15.0528M15.0528 30.3135H15.0331M15.0528 30.3135H15.0331M15.0331 30.3135H15.0134M15.0331 30.3135H15.0134M15.0134 30.3135H14.9936M15.0134 30.3135H14.9936M14.9936 30.3135H14.9739M14.9936 30.3135H14.9739M14.9739 30.3135H14.9542M14.9739 30.3135H14.9542M14.9542 30.3135H14.9344M14.9542 30.3135H14.9344M14.9344 30.3135H14.9147M14.9344 30.3135H14.9147M14.9147 30.3135H14.8949M14.9147 30.3135H14.8949M14.8949 30.3135H14.8752M14.8949 30.3135H14.8752M14.8752 30.3135H14.8555M14.8752 30.3135H14.8555M14.8555 30.3135H14.8357M14.8555 30.3135H14.8357M14.8357 30.3135H14.816M14.8357 30.3135H14.816M14.816 30.3135H14.7963M14.816 30.3135H14.7963M14.7963 30.3135H14.7765M14.7963 30.3135H14.7765M14.7765 30.3135H14.7568M14.7765 30.3135H14.7568M14.7568 30.3135H14.7371M14.7568 30.3135H14.7371M14.7371 30.3135H14.7173M14.7371 30.3135H14.7173M14.7173 30.3135H14.6976M14.7173 30.3135H14.6976M14.6976 30.3135H14.6778M14.6976 30.3135H14.6778M14.6778 30.3135H14.6581M14.6778 30.3135H14.6581M14.6581 30.3135H14.6384M14.6581 30.3135H14.6384M14.6384 30.3135H14.6186M14.6384 30.3135H14.6186M14.6186 30.3135H14.5989M14.6186 30.3135H14.5989M14.5989 30.3135H14.5792M14.5989 30.3135H14.5792M14.5792 30.3135H14.5594M14.5792 30.3135H14.5594M14.5594 30.3135H14.5397M14.5594 30.3135H14.5397M14.5397 30.3135H14.5199M14.5397 30.3135H14.5199M14.5199 30.3135H14.5002M14.5199 30.3135H14.5002M14.5002 30.3135H14.4805M14.5002 30.3135H14.4805M14.4805 30.3135H14.4607M14.4805 30.3135H14.4607M14.4607 30.3135H14.441M14.4607 30.3135H14.441M14.441 30.3135H14.4213M14.441 30.3135H14.4213M14.4213 30.3135H14.4015M14.4213 30.3135H14.4015M14.4015 30.3135H14.3818M14.4015 30.3135H14.3818M14.3818 30.3135H14.3621M14.3818 30.3135H14.3621M14.3621 30.3135H14.3423M14.3621 30.3135H14.3423M14.3423 30.3135H14.3226M14.3423 30.3135H14.3226M14.3226 30.3135H14.3028M14.3226 30.3135H14.3028M14.3028 30.3135H14.2831M14.3028 30.3135H14.2831M14.2831 30.3135H14.2634M14.2831 30.3135H14.2634M14.2634 30.3135H14.2436M14.2634 30.3135H14.2436M14.2436 30.3135H14.2239M14.2436 30.3135H14.2239M14.2239 30.3135H14.2042M14.2239 30.3135H14.2042M14.2042 30.3135H14.1844M14.2042 30.3135H14.1844M14.1844 30.3135H14.1647M14.1844 30.3135H14.1647M14.1647 30.3135H14.145M14.1647 30.3135H14.145M14.145 30.3135H14.1252M14.145 30.3135H14.1252M14.1252 30.3135H14.1055M14.1252 30.3135H14.1055M14.1055 30.3135H14.0857M14.1055 30.3135H14.0857M14.0857 30.3135H14.066M14.0857 30.3135H14.066M14.066 30.3135H14.0463M14.066 30.3135H14.0463M14.0463 30.3135H14.0265M14.0463 30.3135H14.0265M14.0265 30.3135H14.0068M14.0265 30.3135H14.0068M14.0068 30.3135H13.9871M14.0068 30.3135H13.9871M13.9871 30.3135H13.9673M13.9871 30.3135H13.9673M13.9673 30.3135H13.9476M13.9673 30.3135H13.9476M13.9476 30.3135H13.9279M13.9476 30.3135H13.9279M13.9279 30.3135H13.9081M13.9279 30.3135H13.9081M13.9081 30.3135H13.8884M13.9081 30.3135H13.8884M13.8884 30.3135H13.8686M13.8884 30.3135H13.8686M13.8686 30.3135H13.8489M13.8686 30.3135H13.8489M13.8489 30.3135H13.8292M13.8489 30.3135H13.8292M13.8292 30.3135H13.8094M13.8292 30.3135H13.8094M13.8094 30.3135H13.7897M13.8094 30.3135H13.7897M13.7897 30.3135H13.77M13.7897 30.3135H13.77M13.77 30.3135H13.7502M13.77 30.3135H13.7502M13.7502 30.3135H13.7305M13.7502 30.3135H13.7305M13.7305 30.3135H13.7108M13.7305 30.3135H13.7108M13.7108 30.3135H13.691M13.7108 30.3135H13.691M13.691 30.3135H13.6713M13.691 30.3135H13.6713M13.6713 30.3135H13.6515M13.6713 30.3135H13.6515M13.6515 30.3135H13.6318M13.6515 30.3135H13.6318M13.6318 30.3135H13.6121M13.6318 30.3135H13.6121M13.6121 30.3135H13.5923M13.6121 30.3135H13.5923M13.5923 30.3135H13.5726M13.5923 30.3135H13.5726M13.5726 30.3135H13.5529M13.5726 30.3135H13.5529M13.5529 30.3135H13.5331M13.5529 30.3135H13.5331M13.5331 30.3135H13.5134M13.5331 30.3135H13.5134M13.5134 30.3135H13.4936M13.5134 30.3135H13.4936M13.4936 30.3135H13.4739M13.4936 30.3135H13.4739M13.4739 30.3135H13.4542M13.4739 30.3135H13.4542M13.4542 30.3135H13.4344M13.4542 30.3135H13.4344M13.4344 30.3135H13.4147M13.4344 30.3135H13.4147M13.4147 30.3135H13.395M13.4147 30.3135H13.395M13.395 30.3135H13.3752M13.395 30.3135H13.3752M13.3752 30.3135H13.3555M13.3752 30.3135H13.3555M13.3555 30.3135H13.3358M13.3555 30.3135H13.3358M13.3358 30.3135H13.316M13.3358 30.3135H13.316M13.316 30.3135H13.2963M13.316 30.3135H13.2963M13.2963 30.3135H13.2765M13.2963 30.3135H13.2765M13.2765 30.3135H13.2568M13.2765 30.3135H13.2568M13.2568 30.3135H13.2371M13.2568 30.3135H13.2371M13.2371 30.3135H13.2173M13.2371 30.3135H13.2173M13.2173 30.3135H13.1976M13.2173 30.3135H13.1976M13.1976 30.3135H13.1779M13.1976 30.3135H13.1779M13.1779 30.3135H13.1581M13.1779 30.3135H13.1581M13.1581 30.3135H13.1384M13.1581 30.3135H13.1384M13.1384 30.3135H13.1187M13.1384 30.3135H13.1187M13.1187 30.3135H13.0989M13.1187 30.3135H13.0989M13.0989 30.3135H13.0792M13.0989 30.3135H13.0792M13.0792 30.3135H13.0594M13.0792 30.3135H13.0594M13.0594 30.3135H13.0397M13.0594 30.3135H13.0397M13.0397 30.3135H13.02M13.0397 30.3135H13.02M13.02 30.3135H13.0002M13.02 30.3135H13.0002M13.0002 30.3135H12.9805M13.0002 30.3135H12.9805M12.9805 30.3135H12.9608M12.9805 30.3135H12.9608M12.9608 30.3135H12.941M12.9608 30.3135H12.941M12.941 30.3135H12.9213M12.941 30.3135H12.9213M12.9213 30.3135H12.9016M12.9213 30.3135H12.9016M12.9016 30.3135H12.8818M12.9016 30.3135H12.8818M12.8818 30.3135H12.8621M12.8818 30.3135H12.8621M12.8621 30.3135H12.8423M12.8621 30.3135H12.8423M12.8423 30.3135H12.8226M12.8423 30.3135H12.8226M12.8226 30.3135H12.8029M12.8226 30.3135H12.8029M12.8029 30.3135H12.7831M12.8029 30.3135H12.7831M12.7831 30.3135H12.7634M12.7831 30.3135H12.7634M12.7634 30.3135H12.7437M12.7634 30.3135H12.7437M12.7437 30.3135H12.7239M12.7437 30.3135H12.7239M12.7239 30.3135H12.7042M12.7239 30.3135H12.7042M12.7042 30.3135H12.6844M12.7042 30.3135H12.6844M12.6844 30.3135H12.6647M12.6844 30.3135H12.6647M12.6647 30.3135H12.645M12.6647 30.3135H12.645M12.645 30.3135H12.6252M12.645 30.3135H12.6252M12.6252 30.3135H12.6055M12.6252 30.3135H12.6055M12.6055 30.3135H12.5858M12.6055 30.3135H12.5858M12.5858 30.3135H12.566M12.5858 30.3135H12.566M12.566 30.3135H12.5463M12.566 30.3135H12.5463M12.5463 30.3135H12.5266M12.5463 30.3135H12.5266M12.5266 30.3135H12.5068M12.5266 30.3135H12.5068M12.5068 30.3135H12.4871M12.5068 30.3135H12.4871M12.4871 30.3135H12.4673M12.4871 30.3135H12.4673M12.4673 30.3135H12.4476M12.4673 30.3135H12.4476M12.4476 30.3135H12.4279M12.4476 30.3135H12.4279M12.4279 30.3135H12.4081M12.4279 30.3135H12.4081M12.4081 30.3135H12.3884M12.4081 30.3135H12.3884M12.3884 30.3135C12.2738 30.3135 12.2012 30.3069 12.1559 30.2987M12.3884 30.3135L12.1559 30.2987M12.1559 30.2987C12.148 30.2545 12.1416 30.1835 12.1416 30.0719V30.0403V30.0087V29.9771V29.9456V29.914V29.8824V29.8509V29.8193V29.7877V29.7562V29.7246V29.693V29.6615V29.6299V29.5983V29.5668V29.5352V29.5036V29.4721V29.4405V29.4089V29.3774V29.3458V29.3142V29.2827V29.2511V29.2195V29.188V29.1564V29.1248V29.0933V29.0617V29.0301V28.9986V28.967V28.9354V28.9038V28.8723V28.8407V28.8091V28.7776V28.746V28.7144V28.6829V28.6513V28.6197V28.5882V28.5566V28.525V28.4935V28.4619V28.4303V28.3988V28.3672V28.3356V28.3041V28.2725V28.2409V28.2093V28.1778V28.1462V28.1146V28.0831V28.0515V28.0199V27.9884V27.9568V27.9252V27.8937V27.8621V27.8305V27.799V27.7674V27.7358V27.7043V27.6727V27.6411V27.6095V27.578V27.5464V27.5148V27.4833V27.4517V27.4201V27.3886V27.357V27.3254V27.2939V27.2623V27.2307V27.1992V27.1676V27.136V27.1044V27.0729V27.0413V27.0097V26.9782V26.9466V26.915V26.8835V26.8519V26.8203V26.7888V26.7572V26.7256V26.694V26.6625V26.6309V26.5993V26.5678V26.5362V26.5046V26.4731V26.4415V26.4099V26.3784V26.3468V26.3152V26.2836V26.2521V26.2205V26.1889V26.1574V26.1258V26.0942V26.0627V26.0311V25.9995V25.968V25.9364V25.9048V25.8732V25.8417V25.8101V25.7785V25.747V25.7154V25.6838V25.6523V25.6207V25.5891V25.5576V25.526V25.4944V25.4628V25.4313V25.3997V25.3681V25.3366V25.305V25.2734V25.2419V25.2103V25.1787V25.1472V25.1156V25.084V25.0524V25.0209V24.9893V24.9577V24.9262V24.8946V24.863V24.8315V24.7999V24.7683V24.7367V24.7052V24.6736V24.642V24.6105V24.5789V24.5473V24.5158V24.4842V24.4526V24.4211V24.3895V24.3579V24.3263V24.2948V24.2632V24.2316V24.2001V24.1685V24.1369V24.1054V24.0738V24.0422V24.0106V23.9791V23.9475V23.9159V23.8844V23.8528V23.8212V23.7897V23.7581V23.7265V23.6949V23.6634V23.6318V23.6002V23.5687V23.5371V23.5055V23.474V23.4424V23.4108V23.3793V23.3477V23.3161V23.2845V23.253V23.2214V23.1898V23.1583V23.1267V23.0951V23.0636V23.032V23.0004V22.9688V22.9373V22.9057V22.8741V22.8426V22.811V22.7794V22.7479V22.7163V22.6847V22.6531V22.6216V22.59V22.5584V22.5269V22.4953V22.4637V22.4322V22.4006V22.369V22.3374V22.3059V22.2743V22.2427V22.2112V22.1796V22.148V22.1165V22.0849V22.0533V22.0217V21.9902V21.9586V21.927V21.8955V21.8639V21.8323V21.8008V21.7692V21.7376V21.706V21.6745V21.6429V21.6113V21.5798V21.5482V21.5166V21.4851V21.4535V21.4219V21.3903V21.3588V21.3272V21.2956V21.2641V21.2325V21.2009V21.1694V21.1378V21.1062V21.0746V21.0431V21.0115V20.9799V20.9484V20.9168V20.8852V20.8537V20.8221V20.7905V20.759V20.7274V20.6958V20.6642V20.6327V20.6011V20.5695V20.538V20.5064V20.4748V20.4433V20.4117V20.3801V20.3485V20.317V20.2854V20.2538V20.2223V20.1907V20.1591V20.1276V20.096V20.0644V20.0328V20.0013V19.9697V19.9381V19.9066V19.875V19.8434V19.8119V19.7803V19.7487V19.7171V19.6856V19.654V19.6224V19.5909V19.5593V19.5277V19.4962V19.4646V19.433V19.4015V19.3699V19.3383V19.3067V19.2752V19.2436V19.212V19.1805V19.1489V19.1173V19.0858V19.0542V19.0226V18.991V18.9595V18.9279V18.8963V18.8648V18.8332V18.8016V18.7701V18.7385V18.7069V18.6754V18.6438V18.6122V18.5806V18.5491V18.5175V18.4859V18.4544V18.4228V18.3912V18.3597V18.3281V18.2965V18.265V18.2334V18.2018V18.1702V18.1387V18.1071V18.0755V18.044V18.0124V17.9808V17.9493V17.9177V17.8861V17.8545V17.823V17.7914V17.7598V17.7283V17.6967V17.6651V17.6336V17.602V17.5704V17.5389V17.5073V17.4757V17.4441V17.4126V17.381V17.3494V17.3179V17.2863V17.2547V17.2232V17.1916V17.16V17.1285V17.0969V17.0653V17.0338V17.0022V16.9706V16.939V16.9075V16.8759V16.8443V16.8128V16.7812V16.7496V16.7181V16.6865V16.6549V16.6234V16.5918V16.5602V16.5287V16.4971V16.4655V16.4339V16.4024V16.3708V16.3392V16.3077V16.2761V16.2445V16.213V16.1814V16.1498V16.1183V16.0867V16.0551V16.0236V15.992V15.9604V15.9288V15.8973V15.8657V15.8341V15.8026V15.771V15.7394V15.7079V15.6763V15.6447V15.6132V15.5816V15.55V15.5185V15.4869V15.4553V15.4238V15.3922V15.3606V15.3291V15.2975V15.2659V15.2343V15.2028V15.1712V15.1396V15.1081V15.0765V15.0449V15.0134V14.9818V14.9502V14.9187V14.8871V14.8555V14.824V14.7924V14.7608V14.7293V14.6977V14.6661V14.6346V14.603V14.5714V14.5399V14.5083V14.4767V14.4451V14.4136V14.382V14.3504V14.3189V14.2873V14.2557V14.2242V14.1926V14.161V14.1295V14.0979V14.0663V14.0348V14.0032V13.9716V13.9401V13.9085C12.1416 13.8067 12.1477 13.7417 12.155 13.7013C12.1978 13.6934 12.2667 13.6868 12.3754 13.6868H12.4151H12.4548H12.4944H12.5341H12.5738H12.6134H12.6531H12.6928H12.7324H12.7721H12.8118H12.8514H12.8911H12.9308H12.9704H13.0101H13.0497H13.0894H13.1291H13.1687H13.2084H13.2481H13.2877H13.3274H13.3671H13.4067H13.4464H13.4861H13.5257H13.5654H13.6051H13.6447H13.6844H13.7241H13.7637H13.8034H13.843H13.8827H13.9224H13.962H14.0017H14.0414H14.081H14.1207H14.1604H14.2H14.2397H14.2794H14.319H14.3587H14.3984H14.438H14.4777H14.5173H14.557H14.5967H14.6363H14.676H14.7157H14.7553H14.795H14.8347H14.8743H14.914H14.9537H14.9933H15.033H15.0727H15.1123H15.152H15.1916H15.2313H15.271H15.3106H15.3503H15.39H15.4296H15.4693H15.509H15.5486H15.5883H15.628H15.6676H15.7073H15.7469H15.7866H15.8263H15.8659H15.9056H15.9453H15.9849H16.0246H16.0643H16.1039H16.1436H16.1833H16.2229H16.2626H16.3022H16.3419H16.3816H16.4212H16.4609H16.5006H16.5402H16.5799H16.6196H16.6592H16.6989H16.7385H16.7782H16.8179H16.8575H16.8972H16.9369H16.9765H17.0162H17.0559H17.0955H17.1352H17.1748H17.2145H17.2542H17.2938H17.3335H17.3732H17.4128H17.4525H17.4922H17.5318H17.5715H17.6111H17.6508H17.6905H17.7301H17.7698H17.8095H17.8491H17.8888H17.9285H17.9681H18.0078H18.0474H18.0871H18.1268H18.1664H18.2061H18.2458H18.2854H18.3251H18.3648H18.4044H18.4441H18.4837H18.5234H18.5631H18.6027H18.6424H18.6821H18.7217H18.7614H18.8011H18.8407H18.8804H18.92H18.9597H18.9994H19.039H19.0787H19.1184H19.158H19.1977H19.2374H19.277H19.3167H19.3563H19.396H19.4357H19.4753H19.515H19.5547H19.5943H19.634H19.6736H19.7133H19.753H19.7926H19.8323H19.872H19.9116H19.9513H19.991H20.0306H20.0703H20.1099H20.1496H20.1893H20.2289H20.2686H20.3083H20.3479H20.3876H20.4272H20.4669H20.5066H20.5462H20.5859H20.6256H20.6652H20.7049H20.7446H20.7842H20.8239H20.8635H20.9032H20.9429H20.9825H21.0222H21.0619H21.1015H21.1412H21.1808H21.2205H21.2602H21.2998H21.3395H21.3792H21.4188H21.4585H21.4982H21.5378H21.5775H21.6171H21.6568H21.6965H21.7361H21.7758H21.8155H21.8551H21.8948H21.9344H21.9741H22.0138H22.0534H22.0931H22.1328H22.1724H22.2121H22.2517H22.2914H22.3311H22.3707H22.4104H22.4501H22.4897H22.5294H22.5691H22.6087H22.6484H22.688H22.7277H22.7674H22.807H22.8467H22.8864H22.926H22.9657H23.0053H23.045H23.0847H23.1243H23.164H23.2037H23.2433H23.283H23.3227H23.3623H23.402H23.4416H23.4813H23.521H23.5606H23.6003H23.64H23.6796H23.7193H23.7589H23.7986H23.8383H23.8779H23.9176H23.9573H23.9969H24.0366H24.0763H24.1159H24.1556H24.1952H24.2349H24.2746H24.3142H24.3539H24.3936H24.4332H24.4729H24.5125H24.5522H24.5919H24.6315H24.6712H24.7109H24.7505H24.7902H24.8299H24.8695H24.9092H24.9488H24.9885H25.0282H25.0678H25.1075H25.1472H25.1868H25.2265H25.2661H25.3058H25.3455H25.3851H25.4248H25.4645H25.5041H25.5438H25.5835H25.6231H25.6628H25.7024H25.7421H25.7818H25.8214H25.8611H25.9008H25.9404H25.9801H26.0197H26.0594H26.0991H26.1387H26.1784H26.2181H26.2577H26.2974H26.3371H26.3767H26.4164H26.456H26.4957H26.5354H26.575H26.6147H26.6544H26.694H26.7337H26.7734H26.813H26.8527H26.8923H26.932H26.9717H27.0113H27.051H27.0907H27.1303H27.17H27.2097H27.2493H27.289H27.3286H27.3683H27.408H27.4476H27.4873H27.527H27.5666H27.6063H27.646H27.6856H27.7253H27.7649H27.8046H27.8443H27.8839H27.9236H27.9633H28.0029H28.0426H28.0823H28.1219H28.1616H28.2012H28.2409H28.2806H28.3202H28.3599H28.3996H28.4392H28.4789H28.5186H28.5582H28.5979H28.6375H28.6772H28.7169H28.7565H28.7962H28.8359H28.8755H28.9152H28.9549H28.9945H29.0342H29.0739H29.1135H29.1532H29.1928H29.2325H29.2722H29.3118H29.3515H29.3912H29.4308H29.4705H29.5102H29.5498H29.5895H29.6292H29.6688H29.7085H29.7481H29.7878H29.8275H29.8671H29.9068H29.9465H29.9861H30.0258H30.0655H30.1051H30.1448H30.1845H30.2241H30.2638H30.3034H30.3431H30.3828H30.4224H30.4621H30.5018H30.5414H30.5811H30.6208H30.6604H30.7001H30.7398H30.7794H30.8191H30.8588H30.8984H30.9381H30.9777H31.0174H31.0571H31.0967H31.1364H31.1761H31.2157H31.2554H31.2951H31.3347H31.3744H31.4141H31.4537H31.4934H31.5331H31.5727H31.6124H31.6521H31.6917H31.7314H31.771H31.8107H31.8504H31.89H31.9297H31.9694H32.009H32.0487H32.0884H32.128H32.1677H32.2074H32.247H32.2867H32.3264H32.366H32.4057H32.4454H32.485H32.5247H32.5644H32.604H32.6437H32.6833C32.7901 13.6868 32.8579 13.6932 32.9 13.701C32.9074 13.7421 32.9137 13.8082 32.9137 13.912V13.9435V13.9751V14.0067V14.0382V14.0698V14.1014V14.1329V14.1645V14.1961V14.2276V14.2592V14.2908V14.3223V14.3539V14.3855V14.417V14.4486V14.4802V14.5117V14.5433V14.5749V14.6064V14.638V14.6696V14.7011V14.7327V14.7643V14.7959V14.8274V14.859V14.8906V14.9221V14.9537V14.9853V15.0168V15.0484V15.08V15.1115V15.1431V15.1747V15.2062V15.2378V15.2694V15.3009V15.3325V15.3641V15.3956V15.4272V15.4588V15.4903V15.5219V15.5535V15.5851V15.6166V15.6482V15.6798V15.7113V15.7429V15.7745V15.806V15.8376V15.8692V15.9007V15.9323V15.9639V15.9954V16.027V16.0586V16.0901V16.1217V16.1533V16.1849V16.2164V16.248V16.2796V16.3111V16.3427V16.3743V16.4058V16.4374V16.469V16.5005V16.5321V16.5637V16.5952V16.6268V16.6584V16.69V16.7215V16.7531V16.7847V16.8162V16.8478V16.8794V16.9109V16.9425V16.9741V17.0056V17.0372V17.0688V17.1003V17.1319V17.1635V17.1951V17.2266V17.2582V17.2898V17.3213V17.3529V17.3845V17.416V17.4476V17.4792V17.5107V17.5423V17.5739V17.6055V17.637V17.6686V17.7002V17.7317V17.7633V17.7949V17.8264V17.858V17.8896V17.9211V17.9527V17.9843V18.0159V18.0474V18.079V18.1106V18.1421V18.1737V18.2053V18.2368V18.2684V18.3V18.3315V18.3631V18.3947V18.4263V18.4578V18.4894V18.521V18.5525V18.5841V18.6157V18.6472V18.6788V18.7104V18.7419V18.7735V18.8051V18.8367V18.8682V18.8998V18.9314V18.9629V18.9945V19.0261V19.0576V19.0892V19.1208V19.1524V19.1839V19.2155V19.2471V19.2786V19.3102V19.3418V19.3733V19.4049V19.4365V19.468V19.4996V19.5312V19.5628V19.5943V19.6259V19.6575V19.689V19.7206V19.7522V19.7837V19.8153V19.8469V19.8785V19.91V19.9416V19.9732V20.0047V20.0363V20.0679V20.0994V20.131V20.1626V20.1942V20.2257V20.2573V20.2889V20.3204V20.352V20.3836V20.4151V20.4467V20.4783V20.5098V20.5414V20.573V20.6046V20.6361V20.6677V20.6993V20.7308V20.7624V20.794V20.8255V20.8571V20.8887V20.9203V20.9518V20.9834V21.015V21.0465V21.0781V21.1097V21.1412V21.1728V21.2044V21.236V21.2675V21.2991V21.3307V21.3622V21.3938V21.4254V21.4569V21.4885V21.5201V21.5517V21.5832V21.6148V21.6464V21.6779V21.7095V21.7411V21.7726V21.8042V21.8358V21.8674V21.8989V21.9305V21.9621V21.9936V22.0252V22.0568V22.0883V22.1199V22.1515V22.1831V22.2146V22.2462V22.2778V22.3093V22.3409V22.3725V22.404V22.4356V22.4672V22.4988V22.5303V22.5619V22.5935V22.625V22.6566V22.6882V22.7197V22.7513V22.7829V22.8145V22.846V22.8776V22.9092V22.9407V22.9723V23.0039V23.0354V23.067V23.0986V23.1301V23.1617V23.1933V23.2249V23.2564V23.288V23.3196V23.3511V23.3827V23.4143V23.4458V23.4774V23.509V23.5406V23.5721V23.6037V23.6353V23.6668V23.6984V23.73V23.7615V23.7931V23.8247V23.8563V23.8878V23.9194V23.951V23.9825V24.0141V24.0457V24.0772V24.1088V24.1404V24.172V24.2035V24.2351V24.2667V24.2982V24.3298V24.3614V24.3929V24.4245V24.4561V24.4876V24.5192V24.5508V24.5824V24.6139V24.6455V24.6771V24.7086V24.7402V24.7718V24.8033V24.8349V24.8665V24.8981V24.9296V24.9612V24.9928V25.0243V25.0559V25.0875V25.119V25.1506V25.1822V25.2137V25.2453V25.2769V25.3085V25.34V25.3716V25.4032V25.4347V25.4663V25.4979V25.5294V25.561V25.5926V25.6242V25.6557V25.6873V25.7189V25.7504V25.782V25.8136V25.8451V25.8767V25.9083V25.9398V25.9714V26.003V26.0346V26.0661V26.0977V26.1293V26.1608V26.1924V26.224V26.2555V26.2871V26.3187V26.3502V26.3818V26.4134V26.445V26.4765V26.5081V26.5397V26.5712V26.6028V26.6344V26.6659V26.6975V26.7291V26.7606V26.7922V26.8238V26.8553V26.8869V26.9185V26.9501V26.9816V27.0132V27.0448V27.0763V27.1079V27.1395V27.171V27.2026V27.2342V27.2657V27.2973V27.3289V27.3605V27.392V27.4236V27.4552V27.4867V27.5183V27.5499V27.5814V27.613V27.6446V27.6761V27.7077V27.7393V27.7708V27.8024V27.834V27.8656V27.8971V27.9287V27.9603V27.9918V28.0234V28.055V28.0865V28.1181V28.1497V28.1812V28.2128V28.2444V28.2759V28.3075V28.3391V28.3706V28.4022V28.4338V28.4654V28.4969V28.5285V28.5601V28.5916V28.6232V28.6548V28.6863V28.7179V28.7495V28.781V28.8126V28.8442V28.8757V28.9073V28.9389V28.9704V29.002V29.0336V29.0651V29.0967V29.1283V29.1598V29.1914V29.223V29.2546V29.2861V29.3177V29.3493V29.3808V29.4124V29.444V29.4755V29.5071V29.5387V29.5702V29.6018V29.6334V29.6649V29.6965V29.7281V29.7596V29.7912V29.8228V29.8543V29.8859V29.9175V29.949V29.9806V30.0122V30.0437V30.0753L12.1559 30.2987Z" stroke="white"/>
<path d="M20.4688 15.9242C20.6849 15.3347 21.1162 15.1134 21.7091 15.1488C21.9131 15.1609 22.1197 15.1601 22.3245 15.1488C22.9088 15.1177 23.3229 15.3511 23.5286 15.9112C23.7784 15.7919 24.0126 15.6562 24.2624 15.5655C25.0732 15.269 25.8295 15.3632 26.5089 15.9216C27.5245 16.7565 28.1364 17.8646 28.5963 19.0626C29.4105 21.1837 29.6171 23.393 29.4822 25.6455C29.4321 26.4865 29.331 27.3206 29.1918 28.1504C29.178 28.2351 29.1564 28.3189 29.1425 28.4045C29.1028 28.6431 28.9705 28.7969 28.7311 28.8436C28.477 28.8929 28.2929 28.7857 28.1632 28.5696C27.8313 28.019 27.4251 27.5341 26.9047 27.1503C25.8243 26.3543 24.7629 26.3742 23.6997 27.1953C23.5779 27.2895 23.5571 27.3872 23.5545 27.522C23.539 28.2178 23.1284 28.6241 22.4404 28.6292C22.1275 28.6318 21.8146 28.6344 21.5017 28.6284C20.8932 28.6163 20.4532 28.1927 20.4541 27.5903C20.4541 27.3673 20.378 27.242 20.2008 27.1227C19.0011 26.3136 17.9691 26.3793 16.8489 27.35C16.4461 27.6992 16.1151 28.1089 15.8419 28.5661C15.7131 28.7822 15.5299 28.892 15.2758 28.8445C15.0363 28.7995 14.9041 28.6465 14.8617 28.4088C14.2991 25.2626 14.2619 22.1449 15.3942 19.0972C15.7797 18.0591 16.3052 17.0971 17.0823 16.2932C18.0685 15.2733 19.0573 15.1341 20.2899 15.8256C20.3452 15.8567 20.4014 15.887 20.4697 15.925L20.4688 15.9242Z" fill="#FAFCFA"/>
<path d="M21.4827 21.8536C21.4827 20.0626 21.4878 18.2717 21.4766 16.4808C21.4749 16.2431 21.5259 16.1748 21.7722 16.18C22.519 16.1955 22.519 16.1834 22.519 16.9423C22.519 20.3833 22.5156 23.8251 22.5259 27.2661C22.5259 27.5323 22.4697 27.6075 22.1966 27.5998C21.4827 27.579 21.4827 27.5937 21.4827 26.8694V21.8527V21.8536Z" fill="#2F9B5D"/>
<path d="M20.4468 26.0405C18.5729 25.082 17.2893 25.5081 15.6928 27.0337C15.6782 26.4174 15.3929 25.8616 15.8406 25.2937C16.3221 24.6835 16.7767 24.0551 17.3515 23.527C18.3352 22.6229 19.6775 22.8139 20.3819 23.954C20.4303 24.0318 20.4476 24.1079 20.4468 24.1969C20.445 24.8011 20.4459 25.4052 20.4459 26.0405H20.4468Z" fill="#2F9B5D"/>
<path d="M23.5564 26.0812C23.5564 25.4044 23.5581 24.8002 23.5547 24.196C23.5547 24.0932 23.5772 24.0059 23.6394 23.9272C23.9039 23.5953 24.2012 23.3014 24.5919 23.119C25.2099 22.8295 25.8003 22.8476 26.3509 23.2824C27.1746 23.9333 27.7995 24.7544 28.3657 25.6265C28.402 25.6827 28.4322 25.738 28.4262 25.8046C28.3933 26.1987 28.3579 26.5937 28.3181 27.0536C26.9265 25.6568 25.4346 24.9757 23.5564 26.0812Z" fill="#2F9B5D"/>
<path d="M20.4454 22.5546C19.9899 22.2382 19.5525 22.0265 19.0564 21.9305C18.1955 21.7654 17.4936 22.0852 16.8462 22.6039C16.3665 22.9885 15.9646 23.4501 15.5264 23.973C15.535 23.4034 15.5765 22.9046 15.6482 22.4085C15.6707 22.2512 15.8202 22.1682 15.9084 22.0489C16.4599 21.297 17.0753 20.6055 17.8385 20.0592C18.1393 19.844 18.4634 19.6702 18.8368 19.6305C19.5888 19.5492 20.4454 20.328 20.4454 21.0817C20.4454 21.5554 20.4454 22.0291 20.4454 22.5546Z" fill="#2F9B5D"/>
<path d="M28.4946 23.8987C28.1324 23.5745 27.8446 23.2271 27.5144 22.9185C26.185 21.6773 25.1349 21.5684 23.5583 22.5408C23.5583 21.9107 23.5168 21.3004 23.5704 20.6988C23.6205 20.1379 24.7208 19.5164 25.3138 19.6556C25.6664 19.7386 25.9716 19.9149 26.2594 20.1258C27.0788 20.7248 27.6882 21.5226 28.3131 22.3048C28.3433 22.3428 28.3537 22.4033 28.3589 22.4552C28.4056 22.9358 28.4496 23.4164 28.4937 23.8978L28.4946 23.8987Z" fill="#2F9B5D"/>
<path d="M16.1141 20.0601C16.3095 19.5994 16.4832 19.1491 16.6872 18.7134C16.9889 18.0669 17.3623 17.4636 17.8705 16.9545C18.4807 16.3434 19.0382 16.2907 19.7876 16.7315C20.2457 17.0003 20.5474 17.3123 20.4558 17.907C20.397 18.2856 20.4445 18.6814 20.4445 19.0989C20.2354 18.9874 20.0469 18.8733 19.8473 18.7834C19.0979 18.4472 18.3796 18.5699 17.6812 18.9485C17.2041 19.207 16.7866 19.5449 16.3925 19.914C16.3207 19.9814 16.2715 20.1016 16.1133 20.0618L16.1141 20.0601Z" fill="#2F9B5D"/>
<path d="M23.5564 19.1215C23.5564 18.5069 23.5581 17.939 23.5547 17.3712C23.5547 17.289 23.5798 17.2277 23.6385 17.1732C23.9929 16.8508 24.3775 16.5742 24.8521 16.4653C25.2592 16.372 25.6162 16.4999 25.9282 16.7704C26.6361 17.3867 27.083 18.1811 27.4581 19.0229C27.6145 19.3739 27.777 19.7239 27.8522 20.1621C27.3112 19.6055 26.764 19.15 26.1071 18.8406C25.3015 18.462 24.5236 18.5043 23.7716 18.9832C23.712 19.0212 23.6524 19.0592 23.5573 19.1206L23.5564 19.1215Z" fill="#2F9B5D"/>
</svg>
