<svg width="44" height="44" viewBox="0 0 44 44" fill="none" xmlns="http://www.w3.org/2000/svg">
<rect width="44" height="44" rx="10" fill="#EA8009"/>
<path d="M28 25V15C28 14.2044 27.6839 13.4413 27.1213 12.8787C26.5587 12.3161 25.7956 12 25 12H15C14.2044 12 13.4413 12.3161 12.8787 12.8787C12.3161 13.4413 12 14.2044 12 15V25C12 25.7956 12.3161 26.5587 12.8787 27.1213C13.4413 27.6839 14.2044 28 15 28H25C25.7956 28 26.5587 27.6839 27.1213 27.1213C27.6839 26.5587 28 25.7956 28 25ZM14 15C14 14.7348 14.1054 14.4804 14.2929 14.2929C14.4804 14.1054 14.7348 14 15 14H25C25.2652 14 25.5196 14.1054 25.7071 14.2929C25.8946 14.4804 26 14.7348 26 15V19.36L24.92 18.27C24.44 17.7899 23.7889 17.5201 23.11 17.52C22.4315 17.5223 21.7812 17.7917 21.3 18.27L20.39 19.18L19.58 18.37C19.0319 17.8307 18.2939 17.5285 17.525 17.5285C16.7561 17.5285 16.0181 17.8307 15.47 18.37L14 19.85V15ZM14.12 25.45C14.0429 25.3124 14.0016 25.1577 14 25V22.67L16.88 19.79C16.9646 19.705 17.0651 19.6376 17.1758 19.5916C17.2864 19.5456 17.4051 19.5219 17.525 19.5219C17.6449 19.5219 17.7636 19.5456 17.8742 19.5916C17.9849 19.6376 18.0854 19.705 18.17 19.79L19 20.6L14.12 25.45ZM22.72 19.69C22.7693 19.6358 22.8296 19.5926 22.8968 19.5633C22.964 19.534 23.0367 19.5192 23.11 19.52C23.1833 19.5192 23.256 19.534 23.3232 19.5633C23.3904 19.5926 23.4507 19.6358 23.5 19.69L26 22.18V25C26 25.2652 25.8946 25.5196 25.7071 25.7071C25.5196 25.8946 25.2652 26 25 26H16.4L22.72 19.69ZM31 16C30.7348 16 30.4804 16.1054 30.2929 16.2929C30.1054 16.4804 30 16.7348 30 17V27C30 27.7956 29.6839 28.5587 29.1213 29.1213C28.5587 29.6839 27.7956 30 27 30H17C16.7348 30 16.4804 30.1054 16.2929 30.2929C16.1054 30.4804 16 30.7348 16 31C16 31.2652 16.1054 31.5196 16.2929 31.7071C16.4804 31.8946 16.7348 32 17 32H27C28.3261 32 29.5979 31.4732 30.5355 30.5355C31.4732 29.5979 32 28.3261 32 27V17C32 16.7348 31.8946 16.4804 31.7071 16.2929C31.5196 16.1054 31.2652 16 31 16Z" fill="white"/>
</svg>
