<svg width="44" height="44" viewBox="0 0 44 44" fill="none" xmlns="http://www.w3.org/2000/svg">
<rect width="44" height="44" rx="10" fill="#3548E0"/>
<path d="M15.1057 24.3878C14.6857 23.6992 14.7141 22.8849 14.6857 22.164C14.6351 20.8745 14.9032 19.5924 15.4664 18.4313C16.0296 17.2702 16.7851 16.3054 16.9765 16.114L19.2732 17.8366C18.699 18.4108 18.3812 18.9299 18.0218 19.6708C17.6625 20.4116 17.4914 21.2297 17.5237 22.0525C17.556 22.8753 17.7908 23.6774 18.2071 24.3878C18.6235 25.0982 19.2087 25.695 19.9108 26.1252C20.6128 26.5554 21.4102 26.8059 22.2322 26.8544C23.0542 26.9028 23.8755 26.7478 24.6233 26.4031C25.3711 26.0584 26.0223 25.5345 26.5193 24.878C27.0162 24.2214 27.1831 23.8176 27.3119 23.0043L30.2776 23.0835C30.0758 24.3581 29.5627 25.5632 28.7838 26.5922C28.0049 27.6211 26.9843 28.4421 25.8123 28.9824C24.6404 29.5226 23.3533 29.7656 22.065 29.6896C20.7768 29.6136 19.5271 29.2211 18.4268 28.5468C18.1099 28.3527 17.8082 28.1368 17.5237 27.9013" stroke="white" stroke-width="1.5"/>
<circle cx="16.2108" cy="26.2581" r="1.54676" stroke="white" stroke-width="1.5"/>
<mask id="path-4-inside-1_11138_103963" fill="white">
<rect x="15.1301" y="10" width="11.4838" height="4.05082" rx="1" transform="rotate(35.7158 15.1301 10)"/>
</mask>
<rect x="15.1301" y="10" width="11.4838" height="4.05082" rx="1" transform="rotate(35.7158 15.1301 10)" stroke="white" stroke-width="3" mask="url(#path-4-inside-1_11138_103963)"/>
<line x1="25.0149" y1="22.4457" x2="32.288" y2="22.4457" stroke="white" stroke-width="1.5"/>
<mask id="path-6-inside-2_11138_103963" fill="white">
<path d="M12 31.5C12 30.6716 12.6716 30 13.5 30H30.5C31.3284 30 32 30.6716 32 31.5H12Z"/>
</mask>
<path d="M32 31.5V33H33.5V31.5H32ZM12 31.5H10.5V33H12V31.5ZM13.5 31.5H30.5V28.5H13.5V31.5ZM32 30H12V33H32V30ZM30.5 31.5H33.5C33.5 29.8431 32.1569 28.5 30.5 28.5V31.5ZM13.5 28.5C11.8431 28.5 10.5 29.8431 10.5 31.5H13.5H13.5V28.5Z" fill="white" mask="url(#path-6-inside-2_11138_103963)"/>
<path d="M15 27L15 30" stroke="white" stroke-width="1.5"/>
</svg>
