<svg width="44" height="44" viewBox="0 0 44 44" fill="none" xmlns="http://www.w3.org/2000/svg">
<rect width="44" height="44" rx="10" fill="#5A7AFF"/>
<path d="M30 23.18V21C30 18.8783 29.1571 16.8434 27.6569 15.3431C26.1566 13.8429 24.1217 13 22 13C19.8783 13 17.8434 13.8429 16.3431 15.3431C14.8429 16.8434 14 18.8783 14 21V23.18C13.4165 23.3863 12.911 23.7681 12.5529 24.2729C12.1949 24.7778 12.0017 25.3811 12 26V28C12 28.7956 12.3161 29.5587 12.8787 30.1213C13.4413 30.6839 14.2044 31 15 31H18C18.2652 31 18.5196 30.8946 18.7071 30.7071C18.8946 30.5196 19 30.2652 19 30V24C19 23.7348 18.8946 23.4804 18.7071 23.2929C18.5196 23.1054 18.2652 23 18 23H16V21C16 19.4087 16.6321 17.8826 17.7574 16.7574C18.8826 15.6321 20.4087 15 22 15C23.5913 15 25.1174 15.6321 26.2426 16.7574C27.3679 17.8826 28 19.4087 28 21V23H26C25.7348 23 25.4804 23.1054 25.2929 23.2929C25.1054 23.4804 25 23.7348 25 24V30C25 30.2652 25.1054 30.5196 25.2929 30.7071C25.4804 30.8946 25.7348 31 26 31H29C29.7956 31 30.5587 30.6839 31.1213 30.1213C31.6839 29.5587 32 28.7956 32 28V26C31.9983 25.3811 31.8051 24.7778 31.4471 24.2729C31.089 23.7681 30.5835 23.3863 30 23.18ZM17 25V29H15C14.7348 29 14.4804 28.8946 14.2929 28.7071C14.1054 28.5196 14 28.2652 14 28V26C14 25.7348 14.1054 25.4804 14.2929 25.2929C14.4804 25.1054 14.7348 25 15 25H17ZM30 28C30 28.2652 29.8946 28.5196 29.7071 28.7071C29.5196 28.8946 29.2652 29 29 29H27V25H29C29.2652 25 29.5196 25.1054 29.7071 25.2929C29.8946 25.4804 30 25.7348 30 26V28Z" fill="white"/>
</svg>
