<svg width="44" height="44" viewBox="0 0 44 44" fill="none" xmlns="http://www.w3.org/2000/svg">
<rect width="44.0002" height="43.9973" rx="10" fill="#E03A37"/>
<path d="M28.4 15.0687C27.7205 14.3908 27.3119 13.4688 26.352 13.4688C25.3921 13.4688 24.4715 13.8495 23.792 14.5275L22 16.3195" stroke="white" stroke-width="1.5" stroke-miterlimit="10" stroke-linecap="round" stroke-linejoin="round"/>
<path d="M28.0625 21.2177L30.0161 19.2641C31.0306 18.2436 31.6001 16.8631 31.6001 15.4241C31.6001 13.9851 31.0306 12.6045 30.0161 11.5841C28.9956 10.5695 27.6151 10 26.1761 10C24.7371 10 23.3565 10.5695 22.3361 11.5841L11.5841 22.3361C10.5695 23.3565 10 24.7371 10 26.1761C10 27.6151 10.5695 28.9956 11.5841 30.0161C12.6045 31.0306 13.9851 31.6001 15.4241 31.6001C16.8631 31.6001 18.2436 31.0306 19.2641 30.0161L21.2001 28.0801M16.9601 16.9601L23.0749 23.0749" stroke="white" stroke-width="1.5" stroke-miterlimit="10" stroke-linecap="round" stroke-linejoin="round"/>
<path d="M27.6002 33.9973C31.1348 33.9973 34.0002 31.1319 34.0002 27.5973C34.0002 24.0626 31.1348 21.1973 27.6002 21.1973C24.0656 21.1973 21.2002 24.0626 21.2002 27.5973C21.2002 31.1319 24.0656 33.9973 27.6002 33.9973Z" stroke="white" stroke-width="1.5" stroke-linecap="round" stroke-linejoin="round"/>
<path d="M25.1992 27.5961L27.1976 29.5961L30.396 25.9961" stroke="white" stroke-width="1.5" stroke-linecap="round" stroke-linejoin="round"/>
</svg>
