<svg width="44" height="44" viewBox="0 0 44 44" fill="none" xmlns="http://www.w3.org/2000/svg">
<rect width="44" height="44" rx="10" fill="#2A7DFA"/>
<path d="M26 30H18C17.2044 30 16.4413 29.6839 15.8787 29.1213C15.3161 28.5587 15 27.7956 15 27V17C15 16.7348 14.8946 16.4804 14.7071 16.2929C14.5196 16.1054 14.2652 16 14 16C13.7348 16 13.4804 16.1054 13.2929 16.2929C13.1054 16.4804 13 16.7348 13 17V27C13 28.3261 13.5268 29.5979 14.4645 30.5355C15.4021 31.4732 16.6739 32 18 32H26C26.2652 32 26.5196 31.8946 26.7071 31.7071C26.8946 31.5196 27 31.2652 27 31C27 30.7348 26.8946 30.4804 26.7071 30.2929C26.5196 30.1054 26.2652 30 26 30ZM20 23C20 23.2652 20.1054 23.5196 20.2929 23.7071C20.4804 23.8946 20.7348 24 21 24H26C26.2652 24 26.5196 23.8946 26.7071 23.7071C26.8946 23.5196 27 23.2652 27 23C27 22.7348 26.8946 22.4804 26.7071 22.2929C26.5196 22.1054 26.2652 22 26 22H21C20.7348 22 20.4804 22.1054 20.2929 22.2929C20.1054 22.4804 20 22.7348 20 23ZM31 18.94C30.9896 18.8481 30.9695 18.7576 30.94 18.67V18.58C30.8919 18.4772 30.8278 18.3827 30.75 18.3V18.3L24.75 12.3C24.6673 12.2222 24.5728 12.1581 24.47 12.11C24.4402 12.1058 24.4099 12.1058 24.38 12.11C24.2784 12.0517 24.1662 12.0143 24.05 12H20C19.2044 12 18.4413 12.3161 17.8787 12.8787C17.3161 13.4413 17 14.2044 17 15V25C17 25.7956 17.3161 26.5587 17.8787 27.1213C18.4413 27.6839 19.2044 28 20 28H28C28.7956 28 29.5587 27.6839 30.1213 27.1213C30.6839 26.5587 31 25.7956 31 25V19C31 19 31 19 31 18.94ZM25 15.41L27.59 18H26C25.7348 18 25.4804 17.8946 25.2929 17.7071C25.1054 17.5196 25 17.2652 25 17V15.41ZM29 25C29 25.2652 28.8946 25.5196 28.7071 25.7071C28.5196 25.8946 28.2652 26 28 26H20C19.7348 26 19.4804 25.8946 19.2929 25.7071C19.1054 25.5196 19 25.2652 19 25V15C19 14.7348 19.1054 14.4804 19.2929 14.2929C19.4804 14.1054 19.7348 14 20 14H23V17C23.0027 17.3411 23.0636 17.6793 23.18 18H21C20.7348 18 20.4804 18.1054 20.2929 18.2929C20.1054 18.4804 20 18.7348 20 19C20 19.2652 20.1054 19.5196 20.2929 19.7071C20.4804 19.8946 20.7348 20 21 20H29V25Z" fill="white"/>
</svg>
