<svg width="44" height="44" viewBox="0 0 44 44" fill="none" xmlns="http://www.w3.org/2000/svg">
<rect width="44" height="44" rx="10" fill="#9665FF"/>
<path d="M30.4898 17.52C30.4841 17.4936 30.4841 17.4664 30.4898 17.44C30.485 17.4169 30.485 17.3931 30.4898 17.37V17.28L30.4298 17.13C30.4054 17.0891 30.3751 17.052 30.3398 17.02L30.2498 16.94H30.1998L26.2598 14.45L22.5398 12.15C22.4538 12.0817 22.3553 12.0308 22.2498 12H22.1698C22.0804 11.9851 21.9892 11.9851 21.8998 12H21.7998C21.6837 12.0257 21.5723 12.0696 21.4698 12.13L13.9998 16.78L13.9098 16.85L13.8198 16.93L13.7198 17L13.6698 17.06L13.6098 17.21V17.3V17.36C13.6001 17.4263 13.6001 17.4937 13.6098 17.56V26.29C13.6095 26.4599 13.6525 26.6272 13.7347 26.7759C13.8169 26.9246 13.9357 27.0499 14.0798 27.14L21.5798 31.78L21.7298 31.84H21.8098C21.979 31.8936 22.1606 31.8936 22.3298 31.84H22.4098L22.5598 31.78L29.9998 27.21C30.1439 27.1199 30.2627 26.9946 30.345 26.8459C30.4272 26.6972 30.4702 26.5299 30.4698 26.36V17.63C30.4698 17.63 30.4898 17.56 30.4898 17.52ZM21.9998 14.17L23.7798 15.27L18.1898 18.73L16.3998 17.63L21.9998 14.17ZM20.9998 29.17L15.4998 25.81V19.42L20.9998 22.82V29.17ZM21.9998 21.06L20.0898 19.91L25.6798 16.44L27.5998 17.63L21.9998 21.06ZM28.4998 25.78L22.9998 29.2V22.82L28.4998 19.42V25.78Z" fill="white"/>
</svg>
