<svg width="44" height="44" viewBox="0 0 44 44" fill="none" xmlns="http://www.w3.org/2000/svg">
<rect width="44" height="44" rx="10" fill="#454DA5"/>
<path d="M29.8999 22.66C29.7396 22.4775 29.6512 22.2429 29.6512 22C29.6512 21.7571 29.7396 21.5225 29.8999 21.34L31.1799 19.9C31.3209 19.7427 31.4085 19.5447 31.4301 19.3345C31.4516 19.1243 31.4061 18.9127 31.2999 18.73L29.2999 15.27C29.1948 15.0875 29.0348 14.9429 28.8426 14.8567C28.6505 14.7705 28.4361 14.7471 28.2299 14.79L26.3499 15.17C26.1107 15.2194 25.8616 15.1796 25.6498 15.058C25.4379 14.9364 25.2779 14.7415 25.1999 14.51L24.5899 12.68C24.5228 12.4814 24.395 12.3089 24.2245 12.1868C24.0541 12.0648 23.8495 11.9994 23.6399 12H19.6399C19.4218 11.9886 19.206 12.0489 19.0255 12.1717C18.8449 12.2945 18.7095 12.473 18.6399 12.68L18.0799 14.51C18.0019 14.7415 17.8419 14.9364 17.63 15.058C17.4181 15.1796 17.1691 15.2194 16.9299 15.17L14.9999 14.79C14.8044 14.7624 14.6052 14.7932 14.4272 14.8786C14.2493 14.964 14.1006 15.1002 13.9999 15.27L11.9999 18.73C11.8911 18.9106 11.8421 19.1211 11.8601 19.3312C11.878 19.5413 11.962 19.7404 12.0999 19.9L13.3699 21.34C13.5302 21.5225 13.6186 21.7571 13.6186 22C13.6186 22.2429 13.5302 22.4775 13.3699 22.66L12.0999 24.1C11.962 24.2595 11.878 24.4586 11.8601 24.6688C11.8421 24.8789 11.8911 25.0893 11.9999 25.27L13.9999 28.73C14.105 28.9125 14.265 29.0571 14.4571 29.1433C14.6493 29.2295 14.8637 29.2528 15.0699 29.21L16.9499 28.83C17.1891 28.7806 17.4381 28.8204 17.65 28.942C17.8619 29.0636 18.0219 29.2585 18.0999 29.49L18.7099 31.32C18.7795 31.527 18.9149 31.7055 19.0955 31.8283C19.276 31.9511 19.4918 32.0114 19.7099 32H23.7099C23.9195 32.0005 24.1241 31.9352 24.2945 31.8131C24.465 31.6911 24.5928 31.5186 24.6599 31.32L25.2699 29.49C25.3479 29.2585 25.5079 29.0636 25.7198 28.942C25.9316 28.8204 26.1807 28.7806 26.4199 28.83L28.2999 29.21C28.5061 29.2528 28.7205 29.2295 28.9126 29.1433C29.1048 29.0571 29.2648 28.9125 29.3699 28.73L31.3699 25.27C31.4761 25.0873 31.5216 24.8757 31.5001 24.6655C31.4785 24.4553 31.3909 24.2573 31.2499 24.1L29.8999 22.66ZM28.4099 24L29.2099 24.9L27.9299 27.12L26.7499 26.88C26.0297 26.7328 25.2805 26.8551 24.6445 27.2238C24.0085 27.5925 23.53 28.1818 23.2999 28.88L22.9199 30H20.3599L19.9999 28.86C19.7698 28.1618 19.2913 27.5725 18.6553 27.2038C18.0193 26.8351 17.2701 26.7128 16.5499 26.86L15.3699 27.1L14.0699 24.89L14.8699 23.99C15.3619 23.44 15.6338 22.7279 15.6338 21.99C15.6338 21.2521 15.3619 20.54 14.8699 19.99L14.0699 19.09L15.3499 16.89L16.5299 17.13C17.2501 17.2772 17.9993 17.1549 18.6353 16.7862C19.2713 16.4175 19.7498 15.8281 19.9799 15.13L20.3599 14H22.9199L23.2999 15.14C23.53 15.8381 24.0085 16.4275 24.6445 16.7962C25.2805 17.1649 26.0297 17.2872 26.7499 17.14L27.9299 16.9L29.2099 19.12L28.4099 20.02C27.9235 20.5687 27.6549 21.2767 27.6549 22.01C27.6549 22.7433 27.9235 23.4512 28.4099 24ZM21.6399 18C20.8488 18 20.0754 18.2346 19.4176 18.6741C18.7598 19.1136 18.2471 19.7383 17.9444 20.4693C17.6416 21.2002 17.5624 22.0044 17.7168 22.7803C17.8711 23.5563 18.2521 24.269 18.8115 24.8284C19.3709 25.3878 20.0836 25.7688 20.8595 25.9231C21.6355 26.0775 22.4397 25.9983 23.1706 25.6955C23.9015 25.3928 24.5262 24.8801 24.9658 24.2223C25.4053 23.5645 25.6399 22.7911 25.6399 22C25.6399 20.9391 25.2185 19.9217 24.4683 19.1716C23.7182 18.4214 22.7008 18 21.6399 18ZM21.6399 24C21.2443 24 20.8577 23.8827 20.5288 23.6629C20.1999 23.4432 19.9435 23.1308 19.7921 22.7654C19.6408 22.3999 19.6012 21.9978 19.6783 21.6098C19.7555 21.2218 19.946 20.8655 20.2257 20.5858C20.5054 20.3061 20.8618 20.1156 21.2497 20.0384C21.6377 19.9612 22.0398 20.0009 22.4053 20.1522C22.7707 20.3036 23.0831 20.5599 23.3028 20.8888C23.5226 21.2177 23.6399 21.6044 23.6399 22C23.6399 22.5304 23.4292 23.0391 23.0541 23.4142C22.679 23.7893 22.1703 24 21.6399 24Z" fill="white"/>
</svg>
